<svg width="340" height="283" viewBox="0 0 340 283" fill="none" xmlns="http://www.w3.org/2000/svg">
<path d="M225.176 196.479C227.232 182.599 245.581 181.033 257.426 182.21C259.836 182.449 261.713 184.365 261.927 186.777C264.748 218.568 240.125 228.432 220.291 229.9C215.534 230.252 213.124 224.382 215.713 220.376C219.754 214.122 223.805 205.734 225.176 196.479Z" fill="url(#paint0_linear_39_4260)"/>
<path d="M275.915 236.552C267.788 229.146 269.975 203.729 274.827 193.248C275.844 191.051 278.493 190.51 280.593 191.716C300.875 203.369 297.967 222.236 291.012 235.741C288.828 239.981 280.288 240.463 276.73 237.287C276.468 237.054 276.197 236.809 275.915 236.552Z" fill="url(#paint1_linear_39_4260)"/>
<path d="M222.72 223.116C231.385 215.084 275.009 160.614 280.267 146.219C281.647 147.947 283.579 150.365 282.855 157.851C282.132 165.337 232.807 214.767 222.72 223.116Z" fill="#1D1022"/>
<path d="M218.963 148.058C226.509 136.227 243.897 142.291 254.229 148.203C256.33 149.406 257.262 151.921 256.472 154.21C246.063 184.381 219.559 183.329 200.855 176.569C196.369 174.948 196.566 168.605 200.565 166.006C206.808 161.948 213.932 155.945 218.963 148.058Z" fill="url(#paint2_linear_39_4260)"/>
<path d="M205.842 171.368C217.032 167.576 279.097 135.672 289.776 124.679C290.33 126.82 291.106 129.816 287.388 136.354C283.67 142.892 218.46 167.868 205.842 171.368Z" fill="#1D1022"/>
<path d="M258.311 75.8782C265.857 64.0476 283.245 70.1115 293.577 76.0235C295.679 77.2262 296.61 79.7417 295.82 82.0307C285.411 112.202 258.907 111.149 240.203 104.39C235.717 102.768 235.914 96.4257 239.913 93.8263C246.156 89.7683 253.28 83.7655 258.311 75.8782Z" fill="url(#paint3_linear_39_4260)"/>
<path d="M245.191 99.1889C256.38 95.396 318.446 63.4923 329.125 52.4996C329.679 54.6402 330.454 57.6369 326.737 64.1746C323.019 70.7122 257.808 95.6881 245.191 99.1889Z" fill="#1D1022"/>
<path d="M283.982 214.58C282.55 206.116 270.561 170.984 262.726 159.569C264.698 160.204 267.459 161.093 272.564 166.294C277.669 171.496 283.049 205.388 283.982 214.58Z" fill="#1D1022"/>
<path d="M292.878 186.529C285.015 179.364 290.72 175.455 296.416 170.461C298.236 168.864 300.88 168.354 302.979 169.561C323.261 181.213 320.354 200.08 313.398 213.585C311.214 217.825 305.551 216.489 304.432 211.853C302.287 202.967 298.662 191.8 292.878 186.529Z" fill="url(#paint4_linear_39_4260)"/>
<path d="M306.368 192.424C304.937 183.96 292.947 148.828 285.113 137.413C287.085 138.048 289.845 138.937 294.95 144.138C300.055 149.34 305.435 183.232 306.368 192.424Z" fill="#1D1022"/>
<path d="M260.396 168.236C252.585 137.191 279.169 113.168 296.698 106.152C297.448 105.852 298.15 105.381 298.948 105.258C301.743 104.826 308.074 106.737 310.944 109.637C315.168 113.904 318.292 140.381 312.969 158.323C311.359 163.749 308.987 165.872 306.481 165.982C301.239 166.212 291.545 165.378 287.267 168.416C280.263 173.388 271.211 173.013 264.581 172C262.556 171.69 260.896 170.223 260.396 168.236Z" fill="url(#paint5_linear_39_4260)"/>
<path d="M279.116 155.834C293.165 130.851 357.015 -13.5848 360.871 -41.4045C364.583 -41.3853 369.78 -41.3584 371.949 -30.2113C374.119 -19.0643 295.964 128.082 279.116 155.834Z" fill="#1D1022"/>
<path d="M96.1361 90.9848C101.248 73.0903 125.71 74.5651 141.02 78.3738C144.052 79.128 146.11 81.8982 145.984 85.0197C144.253 127.631 109.91 135.834 83.5801 133.912C77.4027 133.461 75.3725 125.481 79.4154 120.788C85.8471 113.323 92.7062 102.991 96.1361 90.9848Z" fill="url(#paint6_linear_39_4260)"/>
<path d="M159.876 125.165C150.774 114.229 154.328 103.196 161.309 95.6242C163.443 93.3092 167.022 93.1978 169.536 95.1512C194.244 114.349 187.033 138.694 175.504 155.124C171.949 160.189 166.119 157.468 166.37 151.258C166.722 142.543 165.895 132.395 159.876 125.165Z" fill="url(#paint7_linear_39_4260)"/>
<path d="M88.3105 125.49C101.055 116.581 167.645 53.3023 177.025 35.3956C178.535 37.9241 180.648 41.464 178.406 51.1553C176.163 60.8465 102.974 116.433 88.3105 125.49Z" fill="#1D1022"/>
<path d="M170.071 125.844C169.659 114.462 160.022 66.0767 151.73 49.6119C154.204 50.8178 157.668 52.5061 163.459 60.298C169.25 68.0898 170.438 113.6 170.071 125.844Z" fill="#1D1022"/>
<path d="M143.129 64.436C133.536 9.30752 181.408 -22.9573 211.384 -29.1242C212.51 -29.3559 213.6 -29.8649 214.749 -29.8692C219.274 -29.8862 229.614 -24.6765 233.959 -18.8803C240.25 -10.4879 241.538 34.4257 230.244 62.5541C224.996 75.623 219.173 73.3541 214.382 66.354C210.503 60.6876 199.62 59.7096 194.237 63.9718C179.899 75.3229 159.956 73.4628 147.573 69.5908C145.238 68.8608 143.549 66.8459 143.129 64.436Z" fill="url(#paint8_linear_39_4260)"/>
<path d="M173.855 47.8017C196.586 17.6538 305.241 -159.92 315.105 -195.716C319.966 -194.99 326.772 -193.974 327.687 -178.93C328.602 -163.887 200.733 14.5459 173.855 47.8017Z" fill="#1D1022"/>
<g clip-path="url(#clip0_39_4260)">
<path d="M258.97 73.3934C261.92 51.9652 271.57 5.99544 286.573 -6.45823" stroke="url(#paint9_linear_39_4260)" stroke-width="20.6489" stroke-linecap="round"/>
<path d="M294.98 135.264C274.258 147.162 248.991 148.033 227.499 137.591V137.591C207.038 127.651 192.461 108.648 188.161 86.3107L185.361 71.7623C182.087 54.756 200.196 41.6912 215.302 50.1608L257.591 73.8709L304.587 93.3258C319.631 99.5536 320.97 120.342 306.85 128.449L294.98 135.264Z" fill="url(#paint10_linear_39_4260)"/>
<path d="M294.98 135.264C274.258 147.162 248.991 148.033 227.499 137.591V137.591C207.038 127.651 192.461 108.648 188.161 86.3107L185.361 71.7623C182.087 54.756 200.196 41.6912 215.302 50.1608L257.591 73.8709L304.587 93.3258C319.631 99.5536 320.97 120.342 306.85 128.449L294.98 135.264Z" fill="url(#paint11_linear_39_4260)" fill-opacity="0.2"/>
<g opacity="0.5" filter="url(#filter0_d_39_4260)">
<path d="M192.784 87.2522C197.501 81.5337 202.984 80.2738 208.702 84.9904C214.421 89.707 215.233 98.1663 210.516 103.885C205.8 109.603 200.543 110.399 194.824 105.682C191.817 99.1869 188.068 92.9707 192.784 87.2522Z" fill="#FEF5D1"/>
</g>
<g opacity="0.5" filter="url(#filter1_d_39_4260)">
<path d="M310.508 120.251C310.352 112.84 306.831 108.453 299.42 108.609C292.009 108.765 286.128 114.899 286.284 122.31C286.44 129.721 290.072 133.604 297.483 133.448C303.869 130.216 310.664 127.662 310.508 120.251Z" fill="#FEF5D1"/>
</g>
<g opacity="0.5" filter="url(#filter2_d_39_4260)">
<path d="M259.576 109.654C262.796 106.954 263.485 103.84 260.785 100.62C258.085 97.4001 253.286 96.9785 250.066 99.6786C246.846 102.379 246.419 105.363 249.119 108.583C252.815 110.258 256.356 112.354 259.576 109.654Z" fill="#FEF5D1"/>
</g>
<g opacity="0.5" filter="url(#filter3_d_39_4260)">
<path d="M225.653 120.814C227.161 119.55 227.484 118.092 226.219 116.585C224.955 115.077 222.708 114.88 221.201 116.144C219.693 117.408 219.493 118.805 220.758 120.313C222.488 121.097 224.146 122.078 225.653 120.814Z" fill="#FEF5D1"/>
</g>
<g opacity="0.5" filter="url(#filter4_d_39_4260)">
<path d="M268.397 134.279C269.905 133.015 270.227 131.557 268.963 130.049C267.699 128.542 265.452 128.345 263.945 129.609C262.437 130.873 262.237 132.27 263.501 133.777C265.232 134.561 266.89 135.543 268.397 134.279Z" fill="#FEF5D1"/>
</g>
<g opacity="0.5" filter="url(#filter5_d_39_4260)">
<path d="M198.845 67.3071C202.065 64.607 202.754 61.4931 200.054 58.2729C197.354 55.0528 192.555 54.6313 189.335 57.3314C186.114 60.0315 185.688 63.0155 188.388 66.2356C192.084 67.9105 195.625 70.0073 198.845 67.3071Z" fill="#FEF5D1"/>
</g>
<g opacity="0.5" filter="url(#filter6_d_39_4260)">
<path d="M278.69 108.338C278.73 110.259 279.643 111.396 281.564 111.355C283.485 111.315 285.009 109.725 284.969 107.804C284.928 105.883 283.987 104.877 282.066 104.917C280.411 105.755 278.65 106.417 278.69 108.338Z" fill="#FEF5D1"/>
</g>
<g opacity="0.2" filter="url(#filter7_d_39_4260)">
<path d="M243.759 126.293C239.442 125.146 236.314 126.453 235.167 130.77C234.021 135.087 236.591 139.516 240.908 140.663C245.225 141.809 248.079 140.355 249.226 136.038C248.42 131.8 248.076 127.44 243.759 126.293Z" fill="#FEF5D1"/>
</g>
<g opacity="0.6" filter="url(#filter8_d_39_4260)">
<path d="M218.617 83.0566C216.561 82.5104 215.071 83.1327 214.525 85.1887C213.979 87.2448 215.203 89.3544 217.259 89.9005C219.315 90.4467 220.674 89.7538 221.221 87.6977C220.837 85.6797 220.673 83.6027 218.617 83.0566Z" fill="#FEF5D1"/>
</g>
</g>
<path d="M140.592 18.0941L134.798 38.4438C134.763 38.5655 134.637 38.637 134.515 38.6046C134.395 38.5728 134.322 38.4526 134.348 38.3314L138.312 19.9095C139.245 16.3885 139.7 12.756 139.665 9.1008L139.519 -5.98967C139.467 -11.3845 140.482 -16.714 142.511 -21.6975L147.897 -37.2908L151.259 -44.929C151.677 -45.8788 152.724 -46.3828 153.728 -46.1169C155.05 -45.7664 155.693 -44.2684 155.036 -43.0683L151.371 -36.37L147.104 -26.8777C143.199 -18.1922 141.225 -8.76334 141.317 0.758884L141.424 11.9188C141.444 14.0065 141.164 16.0862 140.592 18.0941Z" fill="url(#paint12_linear_39_4260)"/>
<path d="M143.818 52.6632C140.172 55.3638 135.472 55.9654 131.087 54.8029V54.8029C126.514 53.5909 122.62 50.5374 120.74 46.1964C117.925 39.6939 114.582 30.217 116.832 26.0392C120.427 19.3666 153.342 27.6044 155.503 36.2894C156.874 41.7989 149.439 48.4996 143.818 52.6632Z" fill="url(#paint13_linear_39_4260)"/>
<defs>
<filter id="filter0_d_39_4260" x="190.031" y="82.0976" width="24.0692" height="27.6917" filterUnits="userSpaceOnUse" color-interpolation-filters="sRGB">
<feFlood flood-opacity="0" result="BackgroundImageFix"/>
<feColorMatrix in="SourceAlpha" type="matrix" values="0 0 0 0 0 0 0 0 0 0 0 0 0 0 0 0 0 0 127 0" result="hardAlpha"/>
<feOffset dy="0.516222"/>
<feGaussianBlur stdDeviation="0.258111"/>
<feComposite in2="hardAlpha" operator="out"/>
<feColorMatrix type="matrix" values="0 0 0 0 0 0 0 0 0 0 0 0 0 0 0 0 0 0 0.2 0"/>
<feBlend mode="normal" in2="BackgroundImageFix" result="effect1_dropShadow_39_4260"/>
<feBlend mode="normal" in="SourceGraphic" in2="effect1_dropShadow_39_4260" result="shape"/>
</filter>
<filter id="filter1_d_39_4260" x="285.764" y="108.605" width="25.2626" height="25.8804" filterUnits="userSpaceOnUse" color-interpolation-filters="sRGB">
<feFlood flood-opacity="0" result="BackgroundImageFix"/>
<feColorMatrix in="SourceAlpha" type="matrix" values="0 0 0 0 0 0 0 0 0 0 0 0 0 0 0 0 0 0 127 0" result="hardAlpha"/>
<feOffset dy="0.516222"/>
<feGaussianBlur stdDeviation="0.258111"/>
<feComposite in2="hardAlpha" operator="out"/>
<feColorMatrix type="matrix" values="0 0 0 0 0 0 0 0 0 0 0 0 0 0 0 0 0 0 0.2 0"/>
<feBlend mode="normal" in2="BackgroundImageFix" result="effect1_dropShadow_39_4260"/>
<feBlend mode="normal" in="SourceGraphic" in2="effect1_dropShadow_39_4260" result="shape"/>
</filter>
<filter id="filter2_d_39_4260" x="246.826" y="97.9" width="16.1476" height="14.083" filterUnits="userSpaceOnUse" color-interpolation-filters="sRGB">
<feFlood flood-opacity="0" result="BackgroundImageFix"/>
<feColorMatrix in="SourceAlpha" type="matrix" values="0 0 0 0 0 0 0 0 0 0 0 0 0 0 0 0 0 0 127 0" result="hardAlpha"/>
<feOffset dy="0.516222"/>
<feGaussianBlur stdDeviation="0.258111"/>
<feComposite in2="hardAlpha" operator="out"/>
<feColorMatrix type="matrix" values="0 0 0 0 0 0 0 0 0 0 0 0 0 0 0 0 0 0 0.2 0"/>
<feBlend mode="normal" in2="BackgroundImageFix" result="effect1_dropShadow_39_4260"/>
<feBlend mode="normal" in="SourceGraphic" in2="effect1_dropShadow_39_4260" result="shape"/>
</filter>
<filter id="filter3_d_39_4260" x="219.41" y="115.311" width="8.10886" height="7.14231" filterUnits="userSpaceOnUse" color-interpolation-filters="sRGB">
<feFlood flood-opacity="0" result="BackgroundImageFix"/>
<feColorMatrix in="SourceAlpha" type="matrix" values="0 0 0 0 0 0 0 0 0 0 0 0 0 0 0 0 0 0 127 0" result="hardAlpha"/>
<feOffset dy="0.516222"/>
<feGaussianBlur stdDeviation="0.258111"/>
<feComposite in2="hardAlpha" operator="out"/>
<feColorMatrix type="matrix" values="0 0 0 0 0 0 0 0 0 0 0 0 0 0 0 0 0 0 0.2 0"/>
<feBlend mode="normal" in2="BackgroundImageFix" result="effect1_dropShadow_39_4260"/>
<feBlend mode="normal" in="SourceGraphic" in2="effect1_dropShadow_39_4260" result="shape"/>
</filter>
<filter id="filter4_d_39_4260" x="262.153" y="128.776" width="8.10886" height="7.14231" filterUnits="userSpaceOnUse" color-interpolation-filters="sRGB">
<feFlood flood-opacity="0" result="BackgroundImageFix"/>
<feColorMatrix in="SourceAlpha" type="matrix" values="0 0 0 0 0 0 0 0 0 0 0 0 0 0 0 0 0 0 127 0" result="hardAlpha"/>
<feOffset dy="0.516222"/>
<feGaussianBlur stdDeviation="0.258111"/>
<feComposite in2="hardAlpha" operator="out"/>
<feColorMatrix type="matrix" values="0 0 0 0 0 0 0 0 0 0 0 0 0 0 0 0 0 0 0.2 0"/>
<feBlend mode="normal" in2="BackgroundImageFix" result="effect1_dropShadow_39_4260"/>
<feBlend mode="normal" in="SourceGraphic" in2="effect1_dropShadow_39_4260" result="shape"/>
</filter>
<filter id="filter5_d_39_4260" x="186.095" y="55.5527" width="16.1476" height="14.083" filterUnits="userSpaceOnUse" color-interpolation-filters="sRGB">
<feFlood flood-opacity="0" result="BackgroundImageFix"/>
<feColorMatrix in="SourceAlpha" type="matrix" values="0 0 0 0 0 0 0 0 0 0 0 0 0 0 0 0 0 0 127 0" result="hardAlpha"/>
<feOffset dy="0.516222"/>
<feGaussianBlur stdDeviation="0.258111"/>
<feComposite in2="hardAlpha" operator="out"/>
<feColorMatrix type="matrix" values="0 0 0 0 0 0 0 0 0 0 0 0 0 0 0 0 0 0 0.2 0"/>
<feBlend mode="normal" in2="BackgroundImageFix" result="effect1_dropShadow_39_4260"/>
<feBlend mode="normal" in="SourceGraphic" in2="effect1_dropShadow_39_4260" result="shape"/>
</filter>
<filter id="filter6_d_39_4260" x="278.173" y="104.916" width="7.3126" height="7.47263" filterUnits="userSpaceOnUse" color-interpolation-filters="sRGB">
<feFlood flood-opacity="0" result="BackgroundImageFix"/>
<feColorMatrix in="SourceAlpha" type="matrix" values="0 0 0 0 0 0 0 0 0 0 0 0 0 0 0 0 0 0 127 0" result="hardAlpha"/>
<feOffset dy="0.516222"/>
<feGaussianBlur stdDeviation="0.258111"/>
<feComposite in2="hardAlpha" operator="out"/>
<feColorMatrix type="matrix" values="0 0 0 0 0 0 0 0 0 0 0 0 0 0 0 0 0 0 0.2 0"/>
<feBlend mode="normal" in2="BackgroundImageFix" result="effect1_dropShadow_39_4260"/>
<feBlend mode="normal" in="SourceGraphic" in2="effect1_dropShadow_39_4260" result="shape"/>
</filter>
<filter id="filter7_d_39_4260" x="234.378" y="125.898" width="15.3642" height="16.1737" filterUnits="userSpaceOnUse" color-interpolation-filters="sRGB">
<feFlood flood-opacity="0" result="BackgroundImageFix"/>
<feColorMatrix in="SourceAlpha" type="matrix" values="0 0 0 0 0 0 0 0 0 0 0 0 0 0 0 0 0 0 127 0" result="hardAlpha"/>
<feOffset dy="0.516222"/>
<feGaussianBlur stdDeviation="0.258111"/>
<feComposite in2="hardAlpha" operator="out"/>
<feColorMatrix type="matrix" values="0 0 0 0 0 0 0 0 0 0 0 0 0 0 0 0 0 0 0.2 0"/>
<feBlend mode="normal" in2="BackgroundImageFix" result="effect1_dropShadow_39_4260"/>
<feBlend mode="normal" in="SourceGraphic" in2="effect1_dropShadow_39_4260" result="shape"/>
</filter>
<filter id="filter8_d_39_4260" x="213.879" y="82.8684" width="7.85825" height="8.24384" filterUnits="userSpaceOnUse" color-interpolation-filters="sRGB">
<feFlood flood-opacity="0" result="BackgroundImageFix"/>
<feColorMatrix in="SourceAlpha" type="matrix" values="0 0 0 0 0 0 0 0 0 0 0 0 0 0 0 0 0 0 127 0" result="hardAlpha"/>
<feOffset dy="0.516222"/>
<feGaussianBlur stdDeviation="0.258111"/>
<feComposite in2="hardAlpha" operator="out"/>
<feColorMatrix type="matrix" values="0 0 0 0 0 0 0 0 0 0 0 0 0 0 0 0 0 0 0.2 0"/>
<feBlend mode="normal" in2="BackgroundImageFix" result="effect1_dropShadow_39_4260"/>
<feBlend mode="normal" in="SourceGraphic" in2="effect1_dropShadow_39_4260" result="shape"/>
</filter>
<linearGradient id="paint0_linear_39_4260" x1="216.667" y1="227.06" x2="258.641" y2="185.517" gradientUnits="userSpaceOnUse">
<stop stop-color="#AFE0A9"/>
<stop offset="0.470324" stop-color="#1DBBA2"/>
<stop offset="1" stop-color="#06342D"/>
</linearGradient>
<linearGradient id="paint1_linear_39_4260" x1="289.181" y1="238.499" x2="280.392" y2="192.373" gradientUnits="userSpaceOnUse">
<stop stop-color="#AFE0A9"/>
<stop offset="0.470324" stop-color="#1DBBA2"/>
<stop offset="1" stop-color="#06342D"/>
</linearGradient>
<linearGradient id="paint2_linear_39_4260" x1="198.706" y1="172.496" x2="253.986" y2="151.718" gradientUnits="userSpaceOnUse">
<stop stop-color="#AFE0A9"/>
<stop offset="0.470324" stop-color="#1DBBA2"/>
<stop offset="1" stop-color="#06342D"/>
</linearGradient>
<linearGradient id="paint3_linear_39_4260" x1="238.055" y1="100.317" x2="293.335" y2="79.5387" gradientUnits="userSpaceOnUse">
<stop stop-color="#AFE0A9"/>
<stop offset="0.470324" stop-color="#1DBBA2"/>
<stop offset="1" stop-color="#06342D"/>
</linearGradient>
<linearGradient id="paint4_linear_39_4260" x1="311.567" y1="216.343" x2="302.778" y2="170.217" gradientUnits="userSpaceOnUse">
<stop stop-color="#AFE0A9"/>
<stop offset="0.470324" stop-color="#1DBBA2"/>
<stop offset="1" stop-color="#06342D"/>
</linearGradient>
<linearGradient id="paint5_linear_39_4260" x1="268.806" y1="166.56" x2="315.444" y2="120.402" gradientUnits="userSpaceOnUse">
<stop stop-color="#AFE0A9"/>
<stop offset="0.470324" stop-color="#FF395A"/>
<stop offset="1" stop-color="#06342D"/>
</linearGradient>
<linearGradient id="paint6_linear_39_4260" x1="79.6959" y1="129.526" x2="141.888" y2="82.9074" gradientUnits="userSpaceOnUse">
<stop stop-color="#AFE0A9"/>
<stop offset="0.470324" stop-color="#1DBBA2"/>
<stop offset="1" stop-color="#06342D"/>
</linearGradient>
<linearGradient id="paint7_linear_39_4260" x1="172.748" y1="158.227" x2="169.9" y2="95.9802" gradientUnits="userSpaceOnUse">
<stop stop-color="#AFE0A9"/>
<stop offset="0.470324" stop-color="#1DBBA2"/>
<stop offset="1" stop-color="#06342D"/>
</linearGradient>
<linearGradient id="paint8_linear_39_4260" x1="156.84" y1="62.5393" x2="239.763" y2="0.381118" gradientUnits="userSpaceOnUse">
<stop stop-color="#AFE0A9"/>
<stop offset="0.470324" stop-color="#1DBBA2"/>
<stop offset="1" stop-color="#06342D"/>
</linearGradient>
<linearGradient id="paint9_linear_39_4260" x1="292.192" y1="-9.75456" x2="260.43" y2="69.7982" gradientUnits="userSpaceOnUse">
<stop stop-color="#8A1733"/>
<stop offset="0.494792" stop-color="#F55D55"/>
<stop offset="1" stop-color="#8A1733"/>
</linearGradient>
<linearGradient id="paint10_linear_39_4260" x1="226.102" y1="136.913" x2="266.029" y2="64.7705" gradientUnits="userSpaceOnUse">
<stop stop-color="#FDDF95"/>
<stop offset="0.700155" stop-color="#FF395A"/>
<stop offset="1" stop-color="#590715"/>
</linearGradient>
<linearGradient id="paint11_linear_39_4260" x1="253.707" y1="107.854" x2="268.044" y2="79.5236" gradientUnits="userSpaceOnUse">
<stop stop-color="#FEF5D2" stop-opacity="0"/>
<stop offset="1" stop-color="#8A1733"/>
</linearGradient>
<linearGradient id="paint12_linear_39_4260" x1="130.951" y1="37.66" x2="153.195" y2="-46.2581" gradientUnits="userSpaceOnUse">
<stop stop-color="#FF395A"/>
<stop offset="1" stop-color="#FDDF95"/>
</linearGradient>
<linearGradient id="paint13_linear_39_4260" x1="130.693" y1="52.0849" x2="135.679" y2="25.1863" gradientUnits="userSpaceOnUse">
<stop stop-color="#FEF5D2"/>
<stop offset="0.723958" stop-color="#FF395A"/>
<stop offset="0.989583" stop-color="#AA0F29"/>
</linearGradient>
<clipPath id="clip0_39_4260">
<rect width="243.467" height="210.86" fill="white" transform="matrix(0.852447 0.522813 0.522813 -0.852447 112.316 90.3542)"/>
</clipPath>
</defs>
</svg>
