<svg width="265" height="169" viewBox="0 0 265 169" fill="none" xmlns="http://www.w3.org/2000/svg">
<path d="M186.237 103.968C182.048 118.629 162.007 117.421 149.464 114.301C146.98 113.683 145.293 111.413 145.397 108.856C146.815 73.9446 174.952 67.2235 196.524 68.7982C201.585 69.1677 203.248 75.7064 199.936 79.5508C194.667 85.6667 189.047 94.1319 186.237 103.968Z" fill="url(#paint0_linear_39_4270)"/>
<path d="M134.015 75.9652C141.472 84.9245 138.56 93.9642 132.841 100.167C131.092 102.064 128.16 102.155 126.1 100.555C105.858 84.8263 111.766 64.8806 121.211 51.4199C124.123 47.2699 128.9 49.4997 128.695 54.5875C128.406 61.7271 129.083 70.0413 134.015 75.9652Z" fill="url(#paint1_linear_39_4270)"/>
<path d="M192.648 75.6984C182.207 82.998 127.65 134.841 119.965 149.512C118.728 147.441 116.997 144.54 118.834 136.6C120.671 128.66 180.634 83.1186 192.648 75.6984Z" fill="#1D1022"/>
<path d="M125.662 75.4087C126 84.7334 133.895 124.375 140.689 137.865C138.662 136.877 135.824 135.494 131.08 129.11C126.335 122.726 125.362 85.4401 125.662 75.4087Z" fill="#1D1022"/>
<path d="M147.736 125.72C155.595 170.886 116.375 197.32 91.8154 202.373C90.8927 202.563 90.0001 202.98 89.0581 202.983C85.3514 202.997 76.8797 198.729 73.3201 193.98C68.166 187.104 67.1107 150.307 76.3638 127.261C80.663 116.554 85.434 118.413 89.3594 124.148C92.537 128.791 101.453 129.592 105.864 126.1C117.611 116.8 133.95 118.324 144.095 121.496C146.008 122.094 147.392 123.745 147.736 125.72Z" fill="url(#paint2_linear_39_4270)"/>
<path d="M122.562 139.348C103.938 164.048 14.9185 309.533 6.83687 338.86C2.85422 338.265 -2.72147 337.433 -3.47148 325.108C-4.22148 312.783 100.541 166.594 122.562 139.348Z" fill="#1D1022"/>
<g clip-path="url(#clip0_39_4270)">
<path d="M52.8274 118.381C50.4109 135.937 42.5048 173.599 30.2125 183.803" stroke="url(#paint3_linear_39_4270)" stroke-width="16.9175" stroke-linecap="round"/>
<path d="M23.325 67.6905C40.3025 57.9431 61.0035 57.2293 78.6121 65.7841C95.375 73.928 107.318 89.4973 110.841 107.798L113.135 119.717C115.817 133.65 100.981 144.354 88.6042 137.415L53.9579 117.99L15.4544 102.05C3.12894 96.9481 2.03144 79.9159 13.6001 73.2739L23.325 67.6905Z" fill="url(#paint4_linear_39_4270)"/>
<path d="M23.325 67.6905C40.3025 57.9431 61.0035 57.2293 78.6121 65.7841C95.375 73.928 107.318 89.4973 110.841 107.798L113.135 119.717C115.817 133.65 100.981 144.354 88.6042 137.415L53.9579 117.99L15.4544 102.05C3.12894 96.9481 2.03144 79.9159 13.6001 73.2739L23.325 67.6905Z" fill="url(#paint5_linear_39_4270)" fill-opacity="0.2"/>
<g opacity="0.5" filter="url(#filter0_d_39_4270)">
<path d="M107.053 107.027C103.189 111.712 98.6968 112.744 94.0117 108.88C89.3266 105.015 88.6612 98.0847 92.5254 93.3995C96.3897 88.7144 100.697 88.0627 105.382 91.9269C107.846 97.2485 110.917 102.341 107.053 107.027Z" fill="#FEF5D1"/>
</g>
<g opacity="0.5" filter="url(#filter1_d_39_4270)">
<path d="M10.6029 79.9907C10.7307 86.0625 13.6156 89.657 19.6874 89.5291C25.7592 89.4013 30.5776 84.3755 30.4498 78.3037C30.3219 72.2319 27.3463 69.0505 21.2745 69.1784C16.0424 71.8267 10.475 73.9189 10.6029 79.9907Z" fill="#FEF5D1"/>
</g>
<g opacity="0.5" filter="url(#filter2_d_39_4270)">
<path d="M52.3313 88.6726C49.6931 90.8848 49.1286 93.436 51.3408 96.0742C53.553 98.7125 57.485 99.0578 60.1232 96.8456C62.7615 94.6334 63.1111 92.1888 60.8989 89.5505C57.8708 88.1783 54.9695 86.4604 52.3313 88.6726Z" fill="#FEF5D1"/>
</g>
<g opacity="0.5" filter="url(#filter3_d_39_4270)">
<path d="M80.1238 79.5294C78.8887 80.565 78.6244 81.7594 79.6601 82.9946C80.6957 84.2297 82.5366 84.3914 83.7717 83.3557C85.0069 82.32 85.1706 81.1755 84.1349 79.9404C82.7172 79.2979 81.3589 78.4937 80.1238 79.5294Z" fill="#FEF5D1"/>
</g>
<g opacity="0.5" filter="url(#filter4_d_39_4270)">
<path d="M45.1045 68.4979C43.8694 69.5335 43.6051 70.728 44.6408 71.9631C45.6765 73.1982 47.5173 73.3599 48.7525 72.3242C49.9876 71.2885 50.1513 70.144 49.1156 68.9089C47.6979 68.2664 46.3396 67.4622 45.1045 68.4979Z" fill="#FEF5D1"/>
</g>
<g opacity="0.5" filter="url(#filter5_d_39_4270)">
<path d="M102.088 123.367C99.4494 125.58 98.885 128.131 101.097 130.769C103.309 133.407 107.241 133.753 109.88 131.54C112.518 129.328 112.867 126.883 110.655 124.245C107.627 122.873 104.726 121.155 102.088 123.367Z" fill="#FEF5D1"/>
</g>
<g opacity="0.5" filter="url(#filter6_d_39_4270)">
<path d="M36.6718 89.7513C36.6386 88.1776 35.8909 87.246 34.3172 87.2791C32.7435 87.3123 31.4946 88.6149 31.5278 90.1886C31.5609 91.7623 32.3322 92.5869 33.9059 92.5537C35.2619 91.8673 36.7049 91.325 36.6718 89.7513Z" fill="#FEF5D1"/>
</g>
<g opacity="0.2" filter="url(#filter7_d_39_4270)">
<path d="M65.2904 75.0408C68.8273 75.9803 71.3901 74.9099 72.3296 71.373C73.269 67.8361 71.1634 64.2072 67.6265 63.2678C64.0896 62.3283 61.7508 63.5201 60.8113 67.0571C61.4714 70.5285 61.7535 74.1013 65.2904 75.0408Z" fill="#FEF5D1"/>
</g>
<g opacity="0.6" filter="url(#filter8_d_39_4270)">
<path d="M85.8888 110.464C87.5733 110.911 88.7939 110.402 89.2414 108.717C89.6888 107.033 88.6859 105.304 87.0014 104.857C85.3169 104.409 84.203 104.977 83.7555 106.662C84.0699 108.315 84.2042 110.016 85.8888 110.464Z" fill="#FEF5D1"/>
</g>
</g>
<defs>
<filter id="filter0_d_39_4270" x="89.589" y="89.4079" width="19.7197" height="22.6876" filterUnits="userSpaceOnUse" color-interpolation-filters="sRGB">
<feFlood flood-opacity="0" result="BackgroundImageFix"/>
<feColorMatrix in="SourceAlpha" type="matrix" values="0 0 0 0 0 0 0 0 0 0 0 0 0 0 0 0 0 0 127 0" result="hardAlpha"/>
<feOffset dy="0.422937"/>
<feGaussianBlur stdDeviation="0.211468"/>
<feComposite in2="hardAlpha" operator="out"/>
<feColorMatrix type="matrix" values="0 0 0 0 0 0 0 0 0 0 0 0 0 0 0 0 0 0 0.2 0"/>
<feBlend mode="normal" in2="BackgroundImageFix" result="effect1_dropShadow_39_4270"/>
<feBlend mode="normal" in="SourceGraphic" in2="effect1_dropShadow_39_4270" result="shape"/>
</filter>
<filter id="filter1_d_39_4270" x="10.1779" y="69.1747" width="20.6974" height="21.2036" filterUnits="userSpaceOnUse" color-interpolation-filters="sRGB">
<feFlood flood-opacity="0" result="BackgroundImageFix"/>
<feColorMatrix in="SourceAlpha" type="matrix" values="0 0 0 0 0 0 0 0 0 0 0 0 0 0 0 0 0 0 127 0" result="hardAlpha"/>
<feOffset dy="0.422937"/>
<feGaussianBlur stdDeviation="0.211468"/>
<feComposite in2="hardAlpha" operator="out"/>
<feColorMatrix type="matrix" values="0 0 0 0 0 0 0 0 0 0 0 0 0 0 0 0 0 0 0.2 0"/>
<feBlend mode="normal" in2="BackgroundImageFix" result="effect1_dropShadow_39_4270"/>
<feBlend mode="normal" in="SourceGraphic" in2="effect1_dropShadow_39_4270" result="shape"/>
</filter>
<filter id="filter2_d_39_4270" x="49.5478" y="87.6107" width="13.2297" height="11.538" filterUnits="userSpaceOnUse" color-interpolation-filters="sRGB">
<feFlood flood-opacity="0" result="BackgroundImageFix"/>
<feColorMatrix in="SourceAlpha" type="matrix" values="0 0 0 0 0 0 0 0 0 0 0 0 0 0 0 0 0 0 127 0" result="hardAlpha"/>
<feOffset dy="0.422937"/>
<feGaussianBlur stdDeviation="0.211468"/>
<feComposite in2="hardAlpha" operator="out"/>
<feColorMatrix type="matrix" values="0 0 0 0 0 0 0 0 0 0 0 0 0 0 0 0 0 0 0.2 0"/>
<feBlend mode="normal" in2="BackgroundImageFix" result="effect1_dropShadow_39_4270"/>
<feBlend mode="normal" in="SourceGraphic" in2="effect1_dropShadow_39_4270" result="shape"/>
</filter>
<filter id="filter3_d_39_4270" x="78.5956" y="79.0322" width="6.64372" height="5.85161" filterUnits="userSpaceOnUse" color-interpolation-filters="sRGB">
<feFlood flood-opacity="0" result="BackgroundImageFix"/>
<feColorMatrix in="SourceAlpha" type="matrix" values="0 0 0 0 0 0 0 0 0 0 0 0 0 0 0 0 0 0 127 0" result="hardAlpha"/>
<feOffset dy="0.422937"/>
<feGaussianBlur stdDeviation="0.211468"/>
<feComposite in2="hardAlpha" operator="out"/>
<feColorMatrix type="matrix" values="0 0 0 0 0 0 0 0 0 0 0 0 0 0 0 0 0 0 0.2 0"/>
<feBlend mode="normal" in2="BackgroundImageFix" result="effect1_dropShadow_39_4270"/>
<feBlend mode="normal" in="SourceGraphic" in2="effect1_dropShadow_39_4270" result="shape"/>
</filter>
<filter id="filter4_d_39_4270" x="43.5763" y="68.0007" width="6.64372" height="5.85161" filterUnits="userSpaceOnUse" color-interpolation-filters="sRGB">
<feFlood flood-opacity="0" result="BackgroundImageFix"/>
<feColorMatrix in="SourceAlpha" type="matrix" values="0 0 0 0 0 0 0 0 0 0 0 0 0 0 0 0 0 0 127 0" result="hardAlpha"/>
<feOffset dy="0.422937"/>
<feGaussianBlur stdDeviation="0.211468"/>
<feComposite in2="hardAlpha" operator="out"/>
<feColorMatrix type="matrix" values="0 0 0 0 0 0 0 0 0 0 0 0 0 0 0 0 0 0 0.2 0"/>
<feBlend mode="normal" in2="BackgroundImageFix" result="effect1_dropShadow_39_4270"/>
<feBlend mode="normal" in="SourceGraphic" in2="effect1_dropShadow_39_4270" result="shape"/>
</filter>
<filter id="filter5_d_39_4270" x="99.3041" y="122.305" width="13.2297" height="11.538" filterUnits="userSpaceOnUse" color-interpolation-filters="sRGB">
<feFlood flood-opacity="0" result="BackgroundImageFix"/>
<feColorMatrix in="SourceAlpha" type="matrix" values="0 0 0 0 0 0 0 0 0 0 0 0 0 0 0 0 0 0 127 0" result="hardAlpha"/>
<feOffset dy="0.422937"/>
<feGaussianBlur stdDeviation="0.211468"/>
<feComposite in2="hardAlpha" operator="out"/>
<feColorMatrix type="matrix" values="0 0 0 0 0 0 0 0 0 0 0 0 0 0 0 0 0 0 0.2 0"/>
<feBlend mode="normal" in2="BackgroundImageFix" result="effect1_dropShadow_39_4270"/>
<feBlend mode="normal" in="SourceGraphic" in2="effect1_dropShadow_39_4270" result="shape"/>
</filter>
<filter id="filter6_d_39_4270" x="31.1042" y="87.2783" width="5.99114" height="6.12227" filterUnits="userSpaceOnUse" color-interpolation-filters="sRGB">
<feFlood flood-opacity="0" result="BackgroundImageFix"/>
<feColorMatrix in="SourceAlpha" type="matrix" values="0 0 0 0 0 0 0 0 0 0 0 0 0 0 0 0 0 0 127 0" result="hardAlpha"/>
<feOffset dy="0.422937"/>
<feGaussianBlur stdDeviation="0.211468"/>
<feComposite in2="hardAlpha" operator="out"/>
<feColorMatrix type="matrix" values="0 0 0 0 0 0 0 0 0 0 0 0 0 0 0 0 0 0 0.2 0"/>
<feBlend mode="normal" in2="BackgroundImageFix" result="effect1_dropShadow_39_4270"/>
<feBlend mode="normal" in="SourceGraphic" in2="effect1_dropShadow_39_4270" result="shape"/>
</filter>
<filter id="filter7_d_39_4270" x="60.3883" y="62.9594" width="12.5878" height="13.251" filterUnits="userSpaceOnUse" color-interpolation-filters="sRGB">
<feFlood flood-opacity="0" result="BackgroundImageFix"/>
<feColorMatrix in="SourceAlpha" type="matrix" values="0 0 0 0 0 0 0 0 0 0 0 0 0 0 0 0 0 0 127 0" result="hardAlpha"/>
<feOffset dy="0.422937"/>
<feGaussianBlur stdDeviation="0.211468"/>
<feComposite in2="hardAlpha" operator="out"/>
<feColorMatrix type="matrix" values="0 0 0 0 0 0 0 0 0 0 0 0 0 0 0 0 0 0 0.2 0"/>
<feBlend mode="normal" in2="BackgroundImageFix" result="effect1_dropShadow_39_4270"/>
<feBlend mode="normal" in="SourceGraphic" in2="effect1_dropShadow_39_4270" result="shape"/>
</filter>
<filter id="filter8_d_39_4270" x="83.3327" y="104.71" width="6.43816" height="6.75411" filterUnits="userSpaceOnUse" color-interpolation-filters="sRGB">
<feFlood flood-opacity="0" result="BackgroundImageFix"/>
<feColorMatrix in="SourceAlpha" type="matrix" values="0 0 0 0 0 0 0 0 0 0 0 0 0 0 0 0 0 0 127 0" result="hardAlpha"/>
<feOffset dy="0.422937"/>
<feGaussianBlur stdDeviation="0.211468"/>
<feComposite in2="hardAlpha" operator="out"/>
<feColorMatrix type="matrix" values="0 0 0 0 0 0 0 0 0 0 0 0 0 0 0 0 0 0 0.2 0"/>
<feBlend mode="normal" in2="BackgroundImageFix" result="effect1_dropShadow_39_4270"/>
<feBlend mode="normal" in="SourceGraphic" in2="effect1_dropShadow_39_4270" result="shape"/>
</filter>
<linearGradient id="paint0_linear_39_4270" x1="199.706" y1="72.3919" x2="148.753" y2="110.586" gradientUnits="userSpaceOnUse">
<stop stop-color="#AFE0A9"/>
<stop offset="0.470324" stop-color="#1DBBA2"/>
<stop offset="1" stop-color="#06342D"/>
</linearGradient>
<linearGradient id="paint1_linear_39_4270" x1="123.469" y1="48.8774" x2="125.802" y2="99.8757" gradientUnits="userSpaceOnUse">
<stop stop-color="#AFE0A9"/>
<stop offset="0.470324" stop-color="#1DBBA2"/>
<stop offset="1" stop-color="#06342D"/>
</linearGradient>
<linearGradient id="paint2_linear_39_4270" x1="136.503" y1="127.274" x2="68.565" y2="178.199" gradientUnits="userSpaceOnUse">
<stop stop-color="#AFE0A9"/>
<stop offset="0.470324" stop-color="#1DBBA2"/>
<stop offset="1" stop-color="#06342D"/>
</linearGradient>
<linearGradient id="paint3_linear_39_4270" x1="25.609" y1="186.503" x2="51.6315" y2="121.326" gradientUnits="userSpaceOnUse">
<stop stop-color="#8A1733"/>
<stop offset="0.494792" stop-color="#F55D55"/>
<stop offset="1" stop-color="#8A1733"/>
</linearGradient>
<linearGradient id="paint4_linear_39_4270" x1="79.7562" y1="66.34" x2="47.0441" y2="125.446" gradientUnits="userSpaceOnUse">
<stop stop-color="#FDDF95"/>
<stop offset="0.700155" stop-color="#FF395A"/>
<stop offset="1" stop-color="#590715"/>
</linearGradient>
<linearGradient id="paint5_linear_39_4270" x1="57.1399" y1="90.1476" x2="45.3931" y2="113.358" gradientUnits="userSpaceOnUse">
<stop stop-color="#FEF5D2" stop-opacity="0"/>
<stop offset="1" stop-color="#8A1733"/>
</linearGradient>
<clipPath id="clip0_39_4270">
<rect width="199.471" height="172.756" fill="white" transform="matrix(-0.852447 -0.522813 -0.522813 0.852447 172.98 104.485)"/>
</clipPath>
</defs>
</svg>
