<svg width="229" height="302" viewBox="0 0 229 302" fill="none" xmlns="http://www.w3.org/2000/svg">
<path d="M129.095 77.2642C144.007 84.671 138.732 105.952 132.892 118.802C131.736 121.346 128.964 122.707 126.239 122.088C89.0324 113.637 87.3992 82.09 93.371 59.2384C94.772 53.8771 102.123 53.3886 105.594 57.7083C111.116 64.5803 119.091 72.2946 129.095 77.2642Z" fill="url(#paint0_linear_39_4273)"/>
<path d="M88.6621 127.783C99.7626 121.553 108.892 126.473 114.418 133.846C116.107 136.1 115.623 139.267 113.496 141.161C92.5894 159.776 72.3442 149.474 59.7645 136.66C55.8862 132.71 59.2284 128.023 64.6509 129.253C72.2602 130.98 81.3224 131.902 88.6621 127.783Z" fill="url(#paint1_linear_39_4273)"/>
<path d="M100.011 64.7694C105.777 77.43 150.62 146.301 164.848 157.465C162.379 158.382 158.921 159.666 150.759 156.117C142.598 152.568 105.595 79.1423 100.011 64.7694Z" fill="#1D1022"/>
<path d="M86.4066 136.642C96.4864 138.129 140.621 137.518 156.454 132.9C154.991 134.88 152.943 137.653 145.146 141.481C137.35 145.309 97.1187 138.955 86.4066 136.642Z" fill="#1D1022"/>
<path d="M144.811 122.923C194.871 123.447 215.473 170.808 216.024 198.182C216.045 199.211 216.316 200.252 216.133 201.264C215.412 205.247 209.147 213.497 203.342 216.377C194.936 220.547 155.213 214.378 132.303 199.869C121.659 193.127 124.602 188.373 131.539 185.296C137.155 182.805 139.785 173.39 136.91 167.961C129.255 153.502 134.134 136.259 139.554 125.994C140.576 124.059 142.623 122.901 144.811 122.923Z" fill="url(#paint2_linear_39_4273)"/>
<path d="M154.45 152.659C177.277 177.559 315.833 302.02 345.721 316.518C344.292 320.676 342.292 326.498 328.908 324.858C315.524 323.217 179.337 181.712 154.45 152.659Z" fill="#1D1022"/>
<path d="M213.3 122.25L197.11 97.6081C197.013 97.4608 197.052 97.2631 197.198 97.1636C197.341 97.0661 197.534 97.0979 197.639 97.2357L213.462 118.191C216.326 122.382 219.744 126.169 223.632 129.459L239.683 143.046C245.421 147.904 250.119 153.827 253.529 160.505L265.074 180.384L270.07 190.885C270.691 192.191 270.269 193.755 269.075 194.571C267.501 195.647 265.336 194.961 264.668 193.176L260.94 183.21L254.812 170.066C249.204 158.039 241.056 147.371 230.927 138.798L219.057 128.75C216.837 126.87 214.898 124.681 213.3 122.25Z" fill="url(#paint3_linear_39_4273)"/>
<path d="M173.898 94.1751C174.368 87.8702 178.013 82.3648 183.232 78.7969C188.674 75.0771 195.441 73.7492 201.732 75.7194C211.154 78.6706 224.196 83.7722 226.553 89.9503C230.319 99.8177 191.66 127.038 180.53 121.41C173.47 117.84 173.172 103.895 173.898 94.1751Z" fill="url(#paint4_linear_39_4273)"/>
<path d="M89.6065 269.182C123.686 268.359 157.997 236.545 171.614 221.687L128.745 218.432C101.019 235.06 55.5275 270.004 89.6065 269.182Z" fill="url(#paint5_linear_39_4273)"/>
<path d="M117.394 240.979C148.72 246.336 140.499 326.825 167.525 329.897" stroke="url(#paint6_linear_39_4273)" stroke-width="10.9452" stroke-linecap="round"/>
<path d="M130.695 168.006C116.172 154.178 94.2339 151.675 76.9703 161.877C60.2356 171.766 51.78 191.312 56.0314 210.28L69.9835 272.526C72.1162 282.041 84.3358 285.255 91.2002 278.329C100.914 268.529 113.686 256.595 125.61 248.406C137.432 240.288 154.081 234.777 167.75 231.298C177.421 228.837 181.302 216.194 174.075 209.312L130.695 168.006Z" fill="url(#paint7_linear_39_4273)"/>
<ellipse opacity="0.3" cx="25.3339" cy="17.656" rx="25.3339" ry="17.656" transform="matrix(-0.714963 0.699162 0.699162 0.714963 88.981 149.216)" fill="#FEF5D1"/>
<ellipse opacity="0.3" cx="20.2316" cy="11.901" rx="20.2316" ry="11.901" transform="matrix(-0.714963 0.699162 0.699162 0.714963 86.9802 154.477)" fill="#FEF5D1"/>
<g opacity="0.4" filter="url(#filter0_d_39_4273)">
<path d="M124.676 194.83C129.272 199.529 133.56 196.18 137.813 192.022C142.066 187.863 144.672 184.469 140.077 179.77C135.481 175.071 128.309 174.633 124.056 178.791C119.803 182.95 120.081 190.131 124.676 194.83Z" fill="#FAC348"/>
</g>
<g opacity="0.1" filter="url(#filter1_d_39_4273)">
<path d="M147.75 225.128C152.345 229.827 156.634 226.478 160.887 222.319C165.139 218.16 167.746 214.767 163.15 210.068C158.555 205.368 151.382 204.93 147.129 209.089C142.877 213.248 143.155 220.428 147.75 225.128Z" fill="#FEF5D1"/>
</g>
<g opacity="0.1" filter="url(#filter2_d_39_4273)">
<path d="M113.502 199.416C115.592 201.553 117.543 200.03 119.478 198.138C121.412 196.246 122.598 194.703 120.508 192.565C118.417 190.427 115.154 190.228 113.22 192.12C111.285 194.011 111.412 197.278 113.502 199.416Z" fill="#FAC348"/>
</g>
<g opacity="0.1" filter="url(#filter3_d_39_4273)">
<path d="M127.791 209.263C130.712 208.629 130.459 206.167 129.885 203.523C129.311 200.878 128.633 199.054 125.712 199.688C122.79 200.322 120.887 202.98 121.461 205.624C122.035 208.268 124.869 209.898 127.791 209.263Z" fill="#FAC348"/>
</g>
<g opacity="0.1" filter="url(#filter4_d_39_4273)">
<path d="M133.05 236.078C136.401 235.351 136.11 232.528 135.452 229.496C134.793 226.463 134.017 224.371 130.666 225.098C127.316 225.826 125.133 228.874 125.792 231.906C126.45 234.938 129.7 236.806 133.05 236.078Z" fill="#FEF5D1"/>
</g>
<g opacity="0.1" filter="url(#filter5_d_39_4273)">
<path d="M81.4995 208.154C85.6236 207.259 85.2659 203.784 84.4556 200.051C83.6452 196.319 82.6891 193.743 78.565 194.639C74.4409 195.534 71.7546 199.286 72.5649 203.018C73.3753 206.75 77.3754 209.05 81.4995 208.154Z" fill="#FAC348"/>
</g>
<g opacity="0.1" filter="url(#filter6_d_39_4273)">
<path d="M108.825 169.393C112.949 168.498 112.591 165.022 111.781 161.29C110.97 157.558 110.014 154.982 105.89 155.878C101.766 156.773 99.0796 160.525 99.89 164.257C100.7 167.989 104.7 170.289 108.825 169.393Z" fill="#FAC348"/>
</g>
<g opacity="0.5" filter="url(#filter7_d_39_4273)">
<path d="M108.654 223.246C111.295 222.673 111.066 220.447 110.547 218.057C110.028 215.667 109.416 214.017 106.775 214.591C104.134 215.164 102.413 217.567 102.932 219.957C103.451 222.347 106.013 223.82 108.654 223.246Z" fill="#FAC348"/>
</g>
<g opacity="0.1" filter="url(#filter8_d_39_4273)">
<path d="M93.7721 252.295C98.7136 256.629 95.6022 261.093 91.6802 265.565C87.7583 270.037 84.511 272.824 79.5694 268.49C74.6279 264.156 73.8013 257.018 77.7233 252.546C81.6452 248.074 88.8305 247.962 93.7721 252.295Z" fill="#FEF5D1"/>
</g>
<g opacity="0.4" filter="url(#filter9_d_39_4273)">
<path d="M91.9762 233.314C94.224 235.286 92.8087 237.316 91.0246 239.351C89.2405 241.385 87.7634 242.653 85.5155 240.681C83.2676 238.71 82.8916 235.463 84.6757 233.428C86.4597 231.394 89.7283 231.343 91.9762 233.314Z" fill="#FAC348"/>
</g>
<g opacity="0.1" filter="url(#filter10_d_39_4273)">
<path d="M111.02 253.406C110.308 257.828 106.604 257.649 102.602 257.005C98.6005 256.361 95.8159 255.496 96.5274 251.074C97.239 246.652 101.06 243.589 105.062 244.233C109.064 244.877 111.731 248.983 111.02 253.406Z" fill="#FEF5D1"/>
</g>
<path d="M89.6065 269.182C123.686 268.36 157.997 236.545 171.614 221.687L128.745 218.433C101.019 235.06 55.5275 270.004 89.6065 269.182Z" fill="url(#paint8_linear_39_4273)"/>
<path d="M117.394 240.979C148.72 246.336 140.499 326.826 167.525 329.897" stroke="url(#paint9_linear_39_4273)" stroke-width="10.9452" stroke-linecap="round"/>
<path d="M130.695 168.006C116.172 154.178 94.2339 151.676 76.9703 161.877C60.2356 171.766 51.78 191.313 56.0314 210.28L69.9835 272.526C72.1162 282.041 84.3358 285.255 91.2002 278.33C100.914 268.529 113.686 256.595 125.61 248.406C137.432 240.288 154.081 234.777 167.75 231.298C177.421 228.837 181.302 216.194 174.075 209.312L130.695 168.006Z" fill="url(#paint10_linear_39_4273)"/>
<ellipse opacity="0.3" cx="25.3339" cy="17.656" rx="25.3339" ry="17.656" transform="matrix(-0.714963 0.699162 0.699162 0.714963 88.981 149.216)" fill="#FEF5D1"/>
<ellipse opacity="0.3" cx="20.2316" cy="11.901" rx="20.2316" ry="11.901" transform="matrix(-0.714963 0.699162 0.699162 0.714963 86.9802 154.477)" fill="#FEF5D1"/>
<g opacity="0.4" filter="url(#filter11_d_39_4273)">
<path d="M124.676 194.83C129.272 199.53 133.56 196.181 137.813 192.022C142.066 187.863 144.672 184.47 140.077 179.77C135.481 175.071 128.309 174.633 124.056 178.792C119.803 182.95 120.081 190.131 124.676 194.83Z" fill="#FAC348"/>
</g>
<g opacity="0.1" filter="url(#filter12_d_39_4273)">
<path d="M147.75 225.128C152.345 229.827 156.634 226.478 160.887 222.319C165.139 218.161 167.746 214.767 163.15 210.068C158.555 205.368 151.382 204.93 147.129 209.089C142.877 213.248 143.155 220.429 147.75 225.128Z" fill="#FEF5D1"/>
</g>
<g opacity="0.1" filter="url(#filter13_d_39_4273)">
<path d="M113.502 199.416C115.592 201.553 117.543 200.03 119.478 198.138C121.412 196.246 122.598 194.703 120.508 192.565C118.417 190.427 115.154 190.228 113.22 192.12C111.285 194.012 111.412 197.278 113.502 199.416Z" fill="#FAC348"/>
</g>
<g opacity="0.1" filter="url(#filter14_d_39_4273)">
<path d="M127.791 209.264C130.712 208.629 130.459 206.167 129.885 203.523C129.311 200.879 128.633 199.054 125.712 199.688C122.79 200.323 120.887 202.98 121.461 205.625C122.035 208.269 124.869 209.898 127.791 209.264Z" fill="#FAC348"/>
</g>
<g opacity="0.1" filter="url(#filter15_d_39_4273)">
<path d="M133.05 236.079C136.401 235.351 136.11 232.528 135.452 229.496C134.793 226.464 134.017 224.371 130.666 225.099C127.316 225.826 125.133 228.874 125.792 231.906C126.45 234.938 129.7 236.806 133.05 236.079Z" fill="#FEF5D1"/>
</g>
<g opacity="0.1" filter="url(#filter16_d_39_4273)">
<path d="M81.4995 208.155C85.6236 207.259 85.2659 203.784 84.4556 200.052C83.6452 196.319 82.6891 193.744 78.565 194.639C74.4409 195.535 71.7546 199.286 72.5649 203.018C73.3753 206.75 77.3754 209.05 81.4995 208.155Z" fill="#FAC348"/>
</g>
<g opacity="0.1" filter="url(#filter17_d_39_4273)">
<path d="M108.825 169.393C112.949 168.498 112.591 165.023 111.781 161.29C110.97 157.558 110.014 154.982 105.89 155.878C101.766 156.773 99.0796 160.525 99.89 164.257C100.7 167.989 104.7 170.289 108.825 169.393Z" fill="#FAC348"/>
</g>
<g opacity="0.5" filter="url(#filter18_d_39_4273)">
<path d="M108.654 223.246C111.295 222.673 111.066 220.447 110.547 218.057C110.028 215.667 109.416 214.018 106.775 214.591C104.134 215.164 102.413 217.567 102.932 219.957C103.451 222.347 106.013 223.82 108.654 223.246Z" fill="#FAC348"/>
</g>
<g opacity="0.1" filter="url(#filter19_d_39_4273)">
<path d="M93.7721 252.296C98.7136 256.629 95.6022 261.093 91.6802 265.565C87.7583 270.037 84.511 272.824 79.5694 268.49C74.6279 264.156 73.8013 257.018 77.7233 252.546C81.6452 248.074 88.8305 247.962 93.7721 252.296Z" fill="#FEF5D1"/>
</g>
<g opacity="0.4" filter="url(#filter20_d_39_4273)">
<path d="M91.9762 233.315C94.224 235.286 92.8087 237.317 91.0246 239.351C89.2405 241.385 87.7634 242.653 85.5155 240.681C83.2676 238.71 82.8916 235.463 84.6757 233.429C86.4597 231.394 89.7283 231.343 91.9762 233.315Z" fill="#FAC348"/>
</g>
<g opacity="0.1" filter="url(#filter21_d_39_4273)">
<path d="M111.02 253.406C110.308 257.828 106.604 257.649 102.602 257.005C98.6005 256.361 95.8159 255.496 96.5274 251.074C97.239 246.652 101.06 243.589 105.062 244.233C109.064 244.877 111.731 248.984 111.02 253.406Z" fill="#FEF5D1"/>
</g>
<path d="M214.463 288.643C232.833 288.2 251.33 271.049 258.67 263.04L235.561 261.286C220.615 270.249 196.092 289.086 214.463 288.643Z" fill="url(#paint11_linear_39_4273)"/>
<path d="M229.442 273.44C246.329 276.328 241.897 319.717 256.466 321.373" stroke="url(#paint12_linear_39_4273)" stroke-width="5.90016" stroke-linecap="round"/>
<path d="M236.612 234.102C228.784 226.648 216.957 225.299 207.651 230.799C198.63 236.129 194.072 246.666 196.364 256.891L203.885 290.446C205.034 295.575 211.622 297.307 215.322 293.574C220.558 288.291 227.443 281.858 233.871 277.443C240.244 273.067 249.219 270.096 256.587 268.221C261.8 266.894 263.893 260.079 259.997 256.369L236.612 234.102Z" fill="url(#paint13_linear_39_4273)"/>
<ellipse opacity="0.3" cx="13.6567" cy="9.51777" rx="13.6567" ry="9.51777" transform="matrix(-0.714963 0.699162 0.699162 0.714963 214.126 223.973)" fill="#FEF5D1"/>
<ellipse opacity="0.3" cx="10.9062" cy="6.4154" rx="10.9062" ry="6.4154" transform="matrix(-0.714963 0.699162 0.699162 0.714963 213.047 226.809)" fill="#FEF5D1"/>
<path opacity="0.4" d="M233.368 248.562C235.845 251.096 238.157 249.29 240.449 247.049C242.742 244.807 244.147 242.977 241.669 240.444C239.192 237.911 235.326 237.675 233.033 239.917C230.741 242.158 230.89 246.029 233.368 248.562Z" fill="#FAC348"/>
<g opacity="0.1" filter="url(#filter23_d_39_4273)">
<path d="M227.344 251.034C228.471 252.187 229.522 251.365 230.565 250.346C231.608 249.326 232.247 248.494 231.12 247.341C229.993 246.189 228.235 246.082 227.192 247.101C226.149 248.121 226.217 249.882 227.344 251.034Z" fill="#FAC348"/>
</g>
<g opacity="0.1" filter="url(#filter24_d_39_4273)">
<path d="M210.092 255.745C212.316 255.262 212.123 253.389 211.686 251.377C211.249 249.365 210.734 247.977 208.511 248.459C206.287 248.942 204.839 250.964 205.276 252.976C205.713 254.988 207.869 256.228 210.092 255.745Z" fill="#FAC348"/>
</g>
<g opacity="0.1" filter="url(#filter25_d_39_4273)">
<path d="M224.822 234.85C227.046 234.368 226.853 232.494 226.416 230.482C225.979 228.47 225.464 227.082 223.241 227.564C221.017 228.047 219.569 230.069 220.006 232.081C220.443 234.093 222.599 235.333 224.822 234.85Z" fill="#FAC348"/>
</g>
<g opacity="0.5" filter="url(#filter26_d_39_4273)">
<path d="M224.731 263.881C226.154 263.571 226.031 262.372 225.751 261.083C225.471 259.795 225.141 258.906 223.717 259.215C222.294 259.524 221.366 260.819 221.646 262.107C221.926 263.396 223.307 264.19 224.731 263.881Z" fill="#FAC348"/>
</g>
<g opacity="0.1" filter="url(#filter27_d_39_4273)">
<path d="M216.708 279.54C219.372 281.876 217.695 284.283 215.581 286.693C213.466 289.104 211.716 290.606 209.052 288.27C206.388 285.934 205.943 282.086 208.057 279.675C210.171 277.264 214.044 277.204 216.708 279.54Z" fill="#FEF5D1"/>
</g>
<g opacity="0.4" filter="url(#filter28_d_39_4273)">
<path d="M215.74 269.308C216.952 270.371 216.189 271.465 215.227 272.562C214.265 273.659 213.469 274.342 212.257 273.279C211.045 272.217 210.843 270.466 211.805 269.369C212.766 268.273 214.528 268.245 215.74 269.308Z" fill="#FAC348"/>
</g>
<g opacity="0.1" filter="url(#filter29_d_39_4273)">
<path d="M226.006 280.138C225.622 282.522 223.626 282.426 221.468 282.079C219.311 281.732 217.81 281.265 218.194 278.881C218.577 276.498 220.637 274.847 222.794 275.194C224.952 275.541 226.389 277.755 226.006 280.138Z" fill="#FEF5D1"/>
</g>
<defs>
<filter id="filter0_d_39_4273" x="119.849" y="175.938" width="23.8421" height="23.5597" filterUnits="userSpaceOnUse" color-interpolation-filters="sRGB">
<feFlood flood-opacity="0" result="BackgroundImageFix"/>
<feColorMatrix in="SourceAlpha" type="matrix" values="0 0 0 0 0 0 0 0 0 0 0 0 0 0 0 0 0 0 127 0" result="hardAlpha"/>
<feOffset dy="1.1901"/>
<feGaussianBlur stdDeviation="0.595048"/>
<feComposite in2="hardAlpha" operator="out"/>
<feColorMatrix type="matrix" values="0 0 0 0 0 0 0 0 0 0 0 0 0 0 0 0 0 0 0.25 0"/>
<feBlend mode="normal" in2="BackgroundImageFix" result="effect1_dropShadow_39_4273"/>
<feBlend mode="normal" in="SourceGraphic" in2="effect1_dropShadow_39_4273" result="shape"/>
</filter>
<filter id="filter1_d_39_4273" x="142.923" y="206.235" width="23.8421" height="23.5597" filterUnits="userSpaceOnUse" color-interpolation-filters="sRGB">
<feFlood flood-opacity="0" result="BackgroundImageFix"/>
<feColorMatrix in="SourceAlpha" type="matrix" values="0 0 0 0 0 0 0 0 0 0 0 0 0 0 0 0 0 0 127 0" result="hardAlpha"/>
<feOffset dy="1.1901"/>
<feGaussianBlur stdDeviation="0.595048"/>
<feComposite in2="hardAlpha" operator="out"/>
<feColorMatrix type="matrix" values="0 0 0 0 0 0 0 0 0 0 0 0 0 0 0 0 0 0 1 0"/>
<feBlend mode="normal" in2="BackgroundImageFix" result="effect1_dropShadow_39_4273"/>
<feBlend mode="normal" in="SourceGraphic" in2="effect1_dropShadow_39_4273" result="shape"/>
</filter>
<filter id="filter2_d_39_4273" x="110.658" y="190.822" width="12.143" height="12.0146" filterUnits="userSpaceOnUse" color-interpolation-filters="sRGB">
<feFlood flood-opacity="0" result="BackgroundImageFix"/>
<feColorMatrix in="SourceAlpha" type="matrix" values="0 0 0 0 0 0 0 0 0 0 0 0 0 0 0 0 0 0 127 0" result="hardAlpha"/>
<feOffset dy="1.1901"/>
<feGaussianBlur stdDeviation="0.595048"/>
<feComposite in2="hardAlpha" operator="out"/>
<feColorMatrix type="matrix" values="0 0 0 0 0 0 0 0 0 0 0 0 0 0 0 0 0 0 1 0"/>
<feBlend mode="normal" in2="BackgroundImageFix" result="effect1_dropShadow_39_4273"/>
<feBlend mode="normal" in="SourceGraphic" in2="effect1_dropShadow_39_4273" result="shape"/>
</filter>
<filter id="filter3_d_39_4273" x="120.168" y="199.561" width="11.2691" height="12.2191" filterUnits="userSpaceOnUse" color-interpolation-filters="sRGB">
<feFlood flood-opacity="0" result="BackgroundImageFix"/>
<feColorMatrix in="SourceAlpha" type="matrix" values="0 0 0 0 0 0 0 0 0 0 0 0 0 0 0 0 0 0 127 0" result="hardAlpha"/>
<feOffset dy="1.1901"/>
<feGaussianBlur stdDeviation="0.595048"/>
<feComposite in2="hardAlpha" operator="out"/>
<feColorMatrix type="matrix" values="0 0 0 0 0 0 0 0 0 0 0 0 0 0 0 0 0 0 1 0"/>
<feBlend mode="normal" in2="BackgroundImageFix" result="effect1_dropShadow_39_4273"/>
<feBlend mode="normal" in="SourceGraphic" in2="effect1_dropShadow_39_4273" result="shape"/>
</filter>
<filter id="filter4_d_39_4273" x="124.484" y="224.953" width="12.5732" height="13.6624" filterUnits="userSpaceOnUse" color-interpolation-filters="sRGB">
<feFlood flood-opacity="0" result="BackgroundImageFix"/>
<feColorMatrix in="SourceAlpha" type="matrix" values="0 0 0 0 0 0 0 0 0 0 0 0 0 0 0 0 0 0 127 0" result="hardAlpha"/>
<feOffset dy="1.1901"/>
<feGaussianBlur stdDeviation="0.595048"/>
<feComposite in2="hardAlpha" operator="out"/>
<feColorMatrix type="matrix" values="0 0 0 0 0 0 0 0 0 0 0 0 0 0 0 0 0 0 1 0"/>
<feBlend mode="normal" in2="BackgroundImageFix" result="effect1_dropShadow_39_4273"/>
<feBlend mode="normal" in="SourceGraphic" in2="effect1_dropShadow_39_4273" result="shape"/>
</filter>
<filter id="filter5_d_39_4273" x="71.2306" y="194.46" width="14.9269" height="16.2677" filterUnits="userSpaceOnUse" color-interpolation-filters="sRGB">
<feFlood flood-opacity="0" result="BackgroundImageFix"/>
<feColorMatrix in="SourceAlpha" type="matrix" values="0 0 0 0 0 0 0 0 0 0 0 0 0 0 0 0 0 0 127 0" result="hardAlpha"/>
<feOffset dy="1.1901"/>
<feGaussianBlur stdDeviation="0.595048"/>
<feComposite in2="hardAlpha" operator="out"/>
<feColorMatrix type="matrix" values="0 0 0 0 0 0 0 0 0 0 0 0 0 0 0 0 0 0 1 0"/>
<feBlend mode="normal" in2="BackgroundImageFix" result="effect1_dropShadow_39_4273"/>
<feBlend mode="normal" in="SourceGraphic" in2="effect1_dropShadow_39_4273" result="shape"/>
</filter>
<filter id="filter6_d_39_4273" x="98.5556" y="155.699" width="14.9269" height="16.2677" filterUnits="userSpaceOnUse" color-interpolation-filters="sRGB">
<feFlood flood-opacity="0" result="BackgroundImageFix"/>
<feColorMatrix in="SourceAlpha" type="matrix" values="0 0 0 0 0 0 0 0 0 0 0 0 0 0 0 0 0 0 127 0" result="hardAlpha"/>
<feOffset dy="1.1901"/>
<feGaussianBlur stdDeviation="0.595048"/>
<feComposite in2="hardAlpha" operator="out"/>
<feColorMatrix type="matrix" values="0 0 0 0 0 0 0 0 0 0 0 0 0 0 0 0 0 0 1 0"/>
<feBlend mode="normal" in2="BackgroundImageFix" result="effect1_dropShadow_39_4273"/>
<feBlend mode="normal" in="SourceGraphic" in2="effect1_dropShadow_39_4273" result="shape"/>
</filter>
<filter id="filter7_d_39_4273" x="101.65" y="214.476" width="10.4151" height="11.2738" filterUnits="userSpaceOnUse" color-interpolation-filters="sRGB">
<feFlood flood-opacity="0" result="BackgroundImageFix"/>
<feColorMatrix in="SourceAlpha" type="matrix" values="0 0 0 0 0 0 0 0 0 0 0 0 0 0 0 0 0 0 127 0" result="hardAlpha"/>
<feOffset dy="1.1901"/>
<feGaussianBlur stdDeviation="0.595048"/>
<feComposite in2="hardAlpha" operator="out"/>
<feColorMatrix type="matrix" values="0 0 0 0 0 0 0 0 0 0 0 0 0 0 0 0 0 0 0.25 0"/>
<feBlend mode="normal" in2="BackgroundImageFix" result="effect1_dropShadow_39_4273"/>
<feBlend mode="normal" in="SourceGraphic" in2="effect1_dropShadow_39_4273" result="shape"/>
</filter>
<filter id="filter8_d_39_4273" x="74.0571" y="249.117" width="23.4498" height="23.9199" filterUnits="userSpaceOnUse" color-interpolation-filters="sRGB">
<feFlood flood-opacity="0" result="BackgroundImageFix"/>
<feColorMatrix in="SourceAlpha" type="matrix" values="0 0 0 0 0 0 0 0 0 0 0 0 0 0 0 0 0 0 127 0" result="hardAlpha"/>
<feOffset dy="1.1901"/>
<feGaussianBlur stdDeviation="0.595048"/>
<feComposite in2="hardAlpha" operator="out"/>
<feColorMatrix type="matrix" values="0 0 0 0 0 0 0 0 0 0 0 0 0 0 0 0 0 0 1 0"/>
<feBlend mode="normal" in2="BackgroundImageFix" result="effect1_dropShadow_39_4273"/>
<feBlend mode="normal" in="SourceGraphic" in2="effect1_dropShadow_39_4273" result="shape"/>
</filter>
<filter id="filter9_d_39_4273" x="82.3592" y="231.869" width="11.9647" height="12.1785" filterUnits="userSpaceOnUse" color-interpolation-filters="sRGB">
<feFlood flood-opacity="0" result="BackgroundImageFix"/>
<feColorMatrix in="SourceAlpha" type="matrix" values="0 0 0 0 0 0 0 0 0 0 0 0 0 0 0 0 0 0 127 0" result="hardAlpha"/>
<feOffset dy="1.1901"/>
<feGaussianBlur stdDeviation="0.595048"/>
<feComposite in2="hardAlpha" operator="out"/>
<feColorMatrix type="matrix" values="0 0 0 0 0 0 0 0 0 0 0 0 0 0 0 0 0 0 0.25 0"/>
<feBlend mode="normal" in2="BackgroundImageFix" result="effect1_dropShadow_39_4273"/>
<feBlend mode="normal" in="SourceGraphic" in2="effect1_dropShadow_39_4273" result="shape"/>
</filter>
<filter id="filter10_d_39_4273" x="95.2262" y="244.147" width="17.0983" height="15.58" filterUnits="userSpaceOnUse" color-interpolation-filters="sRGB">
<feFlood flood-opacity="0" result="BackgroundImageFix"/>
<feColorMatrix in="SourceAlpha" type="matrix" values="0 0 0 0 0 0 0 0 0 0 0 0 0 0 0 0 0 0 127 0" result="hardAlpha"/>
<feOffset dy="1.1901"/>
<feGaussianBlur stdDeviation="0.595048"/>
<feComposite in2="hardAlpha" operator="out"/>
<feColorMatrix type="matrix" values="0 0 0 0 0 0 0 0 0 0 0 0 0 0 0 0 0 0 1 0"/>
<feBlend mode="normal" in2="BackgroundImageFix" result="effect1_dropShadow_39_4273"/>
<feBlend mode="normal" in="SourceGraphic" in2="effect1_dropShadow_39_4273" result="shape"/>
</filter>
<filter id="filter11_d_39_4273" x="119.849" y="175.938" width="23.8421" height="23.5597" filterUnits="userSpaceOnUse" color-interpolation-filters="sRGB">
<feFlood flood-opacity="0" result="BackgroundImageFix"/>
<feColorMatrix in="SourceAlpha" type="matrix" values="0 0 0 0 0 0 0 0 0 0 0 0 0 0 0 0 0 0 127 0" result="hardAlpha"/>
<feOffset dy="1.1901"/>
<feGaussianBlur stdDeviation="0.595048"/>
<feComposite in2="hardAlpha" operator="out"/>
<feColorMatrix type="matrix" values="0 0 0 0 0 0 0 0 0 0 0 0 0 0 0 0 0 0 0.25 0"/>
<feBlend mode="normal" in2="BackgroundImageFix" result="effect1_dropShadow_39_4273"/>
<feBlend mode="normal" in="SourceGraphic" in2="effect1_dropShadow_39_4273" result="shape"/>
</filter>
<filter id="filter12_d_39_4273" x="142.923" y="206.235" width="23.8421" height="23.5597" filterUnits="userSpaceOnUse" color-interpolation-filters="sRGB">
<feFlood flood-opacity="0" result="BackgroundImageFix"/>
<feColorMatrix in="SourceAlpha" type="matrix" values="0 0 0 0 0 0 0 0 0 0 0 0 0 0 0 0 0 0 127 0" result="hardAlpha"/>
<feOffset dy="1.1901"/>
<feGaussianBlur stdDeviation="0.595048"/>
<feComposite in2="hardAlpha" operator="out"/>
<feColorMatrix type="matrix" values="0 0 0 0 0 0 0 0 0 0 0 0 0 0 0 0 0 0 1 0"/>
<feBlend mode="normal" in2="BackgroundImageFix" result="effect1_dropShadow_39_4273"/>
<feBlend mode="normal" in="SourceGraphic" in2="effect1_dropShadow_39_4273" result="shape"/>
</filter>
<filter id="filter13_d_39_4273" x="110.658" y="190.822" width="12.143" height="12.0146" filterUnits="userSpaceOnUse" color-interpolation-filters="sRGB">
<feFlood flood-opacity="0" result="BackgroundImageFix"/>
<feColorMatrix in="SourceAlpha" type="matrix" values="0 0 0 0 0 0 0 0 0 0 0 0 0 0 0 0 0 0 127 0" result="hardAlpha"/>
<feOffset dy="1.1901"/>
<feGaussianBlur stdDeviation="0.595048"/>
<feComposite in2="hardAlpha" operator="out"/>
<feColorMatrix type="matrix" values="0 0 0 0 0 0 0 0 0 0 0 0 0 0 0 0 0 0 1 0"/>
<feBlend mode="normal" in2="BackgroundImageFix" result="effect1_dropShadow_39_4273"/>
<feBlend mode="normal" in="SourceGraphic" in2="effect1_dropShadow_39_4273" result="shape"/>
</filter>
<filter id="filter14_d_39_4273" x="120.168" y="199.562" width="11.2691" height="12.2191" filterUnits="userSpaceOnUse" color-interpolation-filters="sRGB">
<feFlood flood-opacity="0" result="BackgroundImageFix"/>
<feColorMatrix in="SourceAlpha" type="matrix" values="0 0 0 0 0 0 0 0 0 0 0 0 0 0 0 0 0 0 127 0" result="hardAlpha"/>
<feOffset dy="1.1901"/>
<feGaussianBlur stdDeviation="0.595048"/>
<feComposite in2="hardAlpha" operator="out"/>
<feColorMatrix type="matrix" values="0 0 0 0 0 0 0 0 0 0 0 0 0 0 0 0 0 0 1 0"/>
<feBlend mode="normal" in2="BackgroundImageFix" result="effect1_dropShadow_39_4273"/>
<feBlend mode="normal" in="SourceGraphic" in2="effect1_dropShadow_39_4273" result="shape"/>
</filter>
<filter id="filter15_d_39_4273" x="124.484" y="224.954" width="12.5732" height="13.6624" filterUnits="userSpaceOnUse" color-interpolation-filters="sRGB">
<feFlood flood-opacity="0" result="BackgroundImageFix"/>
<feColorMatrix in="SourceAlpha" type="matrix" values="0 0 0 0 0 0 0 0 0 0 0 0 0 0 0 0 0 0 127 0" result="hardAlpha"/>
<feOffset dy="1.1901"/>
<feGaussianBlur stdDeviation="0.595048"/>
<feComposite in2="hardAlpha" operator="out"/>
<feColorMatrix type="matrix" values="0 0 0 0 0 0 0 0 0 0 0 0 0 0 0 0 0 0 1 0"/>
<feBlend mode="normal" in2="BackgroundImageFix" result="effect1_dropShadow_39_4273"/>
<feBlend mode="normal" in="SourceGraphic" in2="effect1_dropShadow_39_4273" result="shape"/>
</filter>
<filter id="filter16_d_39_4273" x="71.2306" y="194.461" width="14.9269" height="16.2677" filterUnits="userSpaceOnUse" color-interpolation-filters="sRGB">
<feFlood flood-opacity="0" result="BackgroundImageFix"/>
<feColorMatrix in="SourceAlpha" type="matrix" values="0 0 0 0 0 0 0 0 0 0 0 0 0 0 0 0 0 0 127 0" result="hardAlpha"/>
<feOffset dy="1.1901"/>
<feGaussianBlur stdDeviation="0.595048"/>
<feComposite in2="hardAlpha" operator="out"/>
<feColorMatrix type="matrix" values="0 0 0 0 0 0 0 0 0 0 0 0 0 0 0 0 0 0 1 0"/>
<feBlend mode="normal" in2="BackgroundImageFix" result="effect1_dropShadow_39_4273"/>
<feBlend mode="normal" in="SourceGraphic" in2="effect1_dropShadow_39_4273" result="shape"/>
</filter>
<filter id="filter17_d_39_4273" x="98.5556" y="155.699" width="14.9269" height="16.2677" filterUnits="userSpaceOnUse" color-interpolation-filters="sRGB">
<feFlood flood-opacity="0" result="BackgroundImageFix"/>
<feColorMatrix in="SourceAlpha" type="matrix" values="0 0 0 0 0 0 0 0 0 0 0 0 0 0 0 0 0 0 127 0" result="hardAlpha"/>
<feOffset dy="1.1901"/>
<feGaussianBlur stdDeviation="0.595048"/>
<feComposite in2="hardAlpha" operator="out"/>
<feColorMatrix type="matrix" values="0 0 0 0 0 0 0 0 0 0 0 0 0 0 0 0 0 0 1 0"/>
<feBlend mode="normal" in2="BackgroundImageFix" result="effect1_dropShadow_39_4273"/>
<feBlend mode="normal" in="SourceGraphic" in2="effect1_dropShadow_39_4273" result="shape"/>
</filter>
<filter id="filter18_d_39_4273" x="101.65" y="214.477" width="10.4151" height="11.2738" filterUnits="userSpaceOnUse" color-interpolation-filters="sRGB">
<feFlood flood-opacity="0" result="BackgroundImageFix"/>
<feColorMatrix in="SourceAlpha" type="matrix" values="0 0 0 0 0 0 0 0 0 0 0 0 0 0 0 0 0 0 127 0" result="hardAlpha"/>
<feOffset dy="1.1901"/>
<feGaussianBlur stdDeviation="0.595048"/>
<feComposite in2="hardAlpha" operator="out"/>
<feColorMatrix type="matrix" values="0 0 0 0 0 0 0 0 0 0 0 0 0 0 0 0 0 0 0.25 0"/>
<feBlend mode="normal" in2="BackgroundImageFix" result="effect1_dropShadow_39_4273"/>
<feBlend mode="normal" in="SourceGraphic" in2="effect1_dropShadow_39_4273" result="shape"/>
</filter>
<filter id="filter19_d_39_4273" x="74.0571" y="249.117" width="23.4498" height="23.9199" filterUnits="userSpaceOnUse" color-interpolation-filters="sRGB">
<feFlood flood-opacity="0" result="BackgroundImageFix"/>
<feColorMatrix in="SourceAlpha" type="matrix" values="0 0 0 0 0 0 0 0 0 0 0 0 0 0 0 0 0 0 127 0" result="hardAlpha"/>
<feOffset dy="1.1901"/>
<feGaussianBlur stdDeviation="0.595048"/>
<feComposite in2="hardAlpha" operator="out"/>
<feColorMatrix type="matrix" values="0 0 0 0 0 0 0 0 0 0 0 0 0 0 0 0 0 0 1 0"/>
<feBlend mode="normal" in2="BackgroundImageFix" result="effect1_dropShadow_39_4273"/>
<feBlend mode="normal" in="SourceGraphic" in2="effect1_dropShadow_39_4273" result="shape"/>
</filter>
<filter id="filter20_d_39_4273" x="82.3592" y="231.869" width="11.9647" height="12.1785" filterUnits="userSpaceOnUse" color-interpolation-filters="sRGB">
<feFlood flood-opacity="0" result="BackgroundImageFix"/>
<feColorMatrix in="SourceAlpha" type="matrix" values="0 0 0 0 0 0 0 0 0 0 0 0 0 0 0 0 0 0 127 0" result="hardAlpha"/>
<feOffset dy="1.1901"/>
<feGaussianBlur stdDeviation="0.595048"/>
<feComposite in2="hardAlpha" operator="out"/>
<feColorMatrix type="matrix" values="0 0 0 0 0 0 0 0 0 0 0 0 0 0 0 0 0 0 0.25 0"/>
<feBlend mode="normal" in2="BackgroundImageFix" result="effect1_dropShadow_39_4273"/>
<feBlend mode="normal" in="SourceGraphic" in2="effect1_dropShadow_39_4273" result="shape"/>
</filter>
<filter id="filter21_d_39_4273" x="95.2262" y="244.147" width="17.0983" height="15.58" filterUnits="userSpaceOnUse" color-interpolation-filters="sRGB">
<feFlood flood-opacity="0" result="BackgroundImageFix"/>
<feColorMatrix in="SourceAlpha" type="matrix" values="0 0 0 0 0 0 0 0 0 0 0 0 0 0 0 0 0 0 127 0" result="hardAlpha"/>
<feOffset dy="1.1901"/>
<feGaussianBlur stdDeviation="0.595048"/>
<feComposite in2="hardAlpha" operator="out"/>
<feColorMatrix type="matrix" values="0 0 0 0 0 0 0 0 0 0 0 0 0 0 0 0 0 0 1 0"/>
<feBlend mode="normal" in2="BackgroundImageFix" result="effect1_dropShadow_39_4273"/>
<feBlend mode="normal" in="SourceGraphic" in2="effect1_dropShadow_39_4273" result="shape"/>
</filter>
<filter id="filter23_d_39_4273" x="225.81" y="246.402" width="6.5459" height="6.47668" filterUnits="userSpaceOnUse" color-interpolation-filters="sRGB">
<feFlood flood-opacity="0" result="BackgroundImageFix"/>
<feColorMatrix in="SourceAlpha" type="matrix" values="0 0 0 0 0 0 0 0 0 0 0 0 0 0 0 0 0 0 127 0" result="hardAlpha"/>
<feOffset dy="0.64154"/>
<feGaussianBlur stdDeviation="0.32077"/>
<feComposite in2="hardAlpha" operator="out"/>
<feColorMatrix type="matrix" values="0 0 0 0 0 0 0 0 0 0 0 0 0 0 0 0 0 0 1 0"/>
<feBlend mode="normal" in2="BackgroundImageFix" result="effect1_dropShadow_39_4273"/>
<feBlend mode="normal" in="SourceGraphic" in2="effect1_dropShadow_39_4273" result="shape"/>
</filter>
<filter id="filter24_d_39_4273" x="204.557" y="248.363" width="8.04657" height="8.76932" filterUnits="userSpaceOnUse" color-interpolation-filters="sRGB">
<feFlood flood-opacity="0" result="BackgroundImageFix"/>
<feColorMatrix in="SourceAlpha" type="matrix" values="0 0 0 0 0 0 0 0 0 0 0 0 0 0 0 0 0 0 127 0" result="hardAlpha"/>
<feOffset dy="0.64154"/>
<feGaussianBlur stdDeviation="0.32077"/>
<feComposite in2="hardAlpha" operator="out"/>
<feColorMatrix type="matrix" values="0 0 0 0 0 0 0 0 0 0 0 0 0 0 0 0 0 0 1 0"/>
<feBlend mode="normal" in2="BackgroundImageFix" result="effect1_dropShadow_39_4273"/>
<feBlend mode="normal" in="SourceGraphic" in2="effect1_dropShadow_39_4273" result="shape"/>
</filter>
<filter id="filter25_d_39_4273" x="219.287" y="227.468" width="8.04657" height="8.76932" filterUnits="userSpaceOnUse" color-interpolation-filters="sRGB">
<feFlood flood-opacity="0" result="BackgroundImageFix"/>
<feColorMatrix in="SourceAlpha" type="matrix" values="0 0 0 0 0 0 0 0 0 0 0 0 0 0 0 0 0 0 127 0" result="hardAlpha"/>
<feOffset dy="0.64154"/>
<feGaussianBlur stdDeviation="0.32077"/>
<feComposite in2="hardAlpha" operator="out"/>
<feColorMatrix type="matrix" values="0 0 0 0 0 0 0 0 0 0 0 0 0 0 0 0 0 0 1 0"/>
<feBlend mode="normal" in2="BackgroundImageFix" result="effect1_dropShadow_39_4273"/>
<feBlend mode="normal" in="SourceGraphic" in2="effect1_dropShadow_39_4273" result="shape"/>
</filter>
<filter id="filter26_d_39_4273" x="220.955" y="259.153" width="5.6145" height="6.07736" filterUnits="userSpaceOnUse" color-interpolation-filters="sRGB">
<feFlood flood-opacity="0" result="BackgroundImageFix"/>
<feColorMatrix in="SourceAlpha" type="matrix" values="0 0 0 0 0 0 0 0 0 0 0 0 0 0 0 0 0 0 127 0" result="hardAlpha"/>
<feOffset dy="0.64154"/>
<feGaussianBlur stdDeviation="0.32077"/>
<feComposite in2="hardAlpha" operator="out"/>
<feColorMatrix type="matrix" values="0 0 0 0 0 0 0 0 0 0 0 0 0 0 0 0 0 0 0.25 0"/>
<feBlend mode="normal" in2="BackgroundImageFix" result="effect1_dropShadow_39_4273"/>
<feBlend mode="normal" in="SourceGraphic" in2="effect1_dropShadow_39_4273" result="shape"/>
</filter>
<filter id="filter27_d_39_4273" x="206.081" y="277.827" width="12.6409" height="12.8944" filterUnits="userSpaceOnUse" color-interpolation-filters="sRGB">
<feFlood flood-opacity="0" result="BackgroundImageFix"/>
<feColorMatrix in="SourceAlpha" type="matrix" values="0 0 0 0 0 0 0 0 0 0 0 0 0 0 0 0 0 0 127 0" result="hardAlpha"/>
<feOffset dy="0.64154"/>
<feGaussianBlur stdDeviation="0.32077"/>
<feComposite in2="hardAlpha" operator="out"/>
<feColorMatrix type="matrix" values="0 0 0 0 0 0 0 0 0 0 0 0 0 0 0 0 0 0 1 0"/>
<feBlend mode="normal" in2="BackgroundImageFix" result="effect1_dropShadow_39_4273"/>
<feBlend mode="normal" in="SourceGraphic" in2="effect1_dropShadow_39_4273" result="shape"/>
</filter>
<filter id="filter28_d_39_4273" x="210.556" y="268.529" width="6.44971" height="6.565" filterUnits="userSpaceOnUse" color-interpolation-filters="sRGB">
<feFlood flood-opacity="0" result="BackgroundImageFix"/>
<feColorMatrix in="SourceAlpha" type="matrix" values="0 0 0 0 0 0 0 0 0 0 0 0 0 0 0 0 0 0 127 0" result="hardAlpha"/>
<feOffset dy="0.64154"/>
<feGaussianBlur stdDeviation="0.32077"/>
<feComposite in2="hardAlpha" operator="out"/>
<feColorMatrix type="matrix" values="0 0 0 0 0 0 0 0 0 0 0 0 0 0 0 0 0 0 0.25 0"/>
<feBlend mode="normal" in2="BackgroundImageFix" result="effect1_dropShadow_39_4273"/>
<feBlend mode="normal" in="SourceGraphic" in2="effect1_dropShadow_39_4273" result="shape"/>
</filter>
<filter id="filter29_d_39_4273" x="217.492" y="275.148" width="9.21716" height="8.39868" filterUnits="userSpaceOnUse" color-interpolation-filters="sRGB">
<feFlood flood-opacity="0" result="BackgroundImageFix"/>
<feColorMatrix in="SourceAlpha" type="matrix" values="0 0 0 0 0 0 0 0 0 0 0 0 0 0 0 0 0 0 127 0" result="hardAlpha"/>
<feOffset dy="0.64154"/>
<feGaussianBlur stdDeviation="0.32077"/>
<feComposite in2="hardAlpha" operator="out"/>
<feColorMatrix type="matrix" values="0 0 0 0 0 0 0 0 0 0 0 0 0 0 0 0 0 0 1 0"/>
<feBlend mode="normal" in2="BackgroundImageFix" result="effect1_dropShadow_39_4273"/>
<feBlend mode="normal" in="SourceGraphic" in2="effect1_dropShadow_39_4273" result="shape"/>
</filter>
<linearGradient id="paint0_linear_39_4273" x1="97.8614" y1="56.5344" x2="128.763" y2="118.828" gradientUnits="userSpaceOnUse">
<stop stop-color="#AFE0A9"/>
<stop offset="0.470324" stop-color="#1DBBA2"/>
<stop offset="1" stop-color="#06342D"/>
</linearGradient>
<linearGradient id="paint1_linear_39_4273" x1="57.4824" y1="133.732" x2="112.708" y2="141.347" gradientUnits="userSpaceOnUse">
<stop stop-color="#AFE0A9"/>
<stop offset="0.470324" stop-color="#1DBBA2"/>
<stop offset="1" stop-color="#06342D"/>
</linearGradient>
<linearGradient id="paint2_linear_39_4273" x1="144.251" y1="135.294" x2="185.453" y2="218.352" gradientUnits="userSpaceOnUse">
<stop stop-color="#AFE0A9"/>
<stop offset="0.470324" stop-color="#1DBBA2"/>
<stop offset="1" stop-color="#06342D"/>
</linearGradient>
<linearGradient id="paint3_linear_39_4273" x1="201.439" y1="94.2645" x2="269.709" y2="194.138" gradientUnits="userSpaceOnUse">
<stop stop-color="#FF395A"/>
<stop offset="1" stop-color="#FDDF95"/>
</linearGradient>
<linearGradient id="paint4_linear_39_4273" x1="179.436" y1="74.8026" x2="217.142" y2="121.069" gradientUnits="userSpaceOnUse">
<stop stop-color="#FEF5D2"/>
<stop offset="0.416542" stop-color="#FFCA4D"/>
<stop offset="0.989583" stop-color="#FF395A"/>
</linearGradient>
<linearGradient id="paint5_linear_39_4273" x1="126.984" y1="237.726" x2="135.185" y2="252.423" gradientUnits="userSpaceOnUse">
<stop stop-color="#34050C"/>
<stop offset="1" stop-color="#FF395A"/>
</linearGradient>
<linearGradient id="paint6_linear_39_4273" x1="112.064" y1="230.134" x2="173.615" y2="337.89" gradientUnits="userSpaceOnUse">
<stop stop-color="#FF395A"/>
<stop offset="0.519989" stop-color="#FFCA4D"/>
<stop offset="1" stop-color="#FF395A"/>
</linearGradient>
<linearGradient id="paint7_linear_39_4273" x1="85.1142" y1="184.388" x2="133.565" y2="260.922" gradientUnits="userSpaceOnUse">
<stop offset="0.00520833" stop-color="#FFCA4D"/>
<stop offset="0.802083" stop-color="#FF395A"/>
<stop offset="1" stop-color="#821023"/>
</linearGradient>
<linearGradient id="paint8_linear_39_4273" x1="126.984" y1="237.726" x2="135.185" y2="252.423" gradientUnits="userSpaceOnUse">
<stop stop-color="#34050C"/>
<stop offset="1" stop-color="#FF395A"/>
</linearGradient>
<linearGradient id="paint9_linear_39_4273" x1="112.064" y1="230.135" x2="173.615" y2="337.89" gradientUnits="userSpaceOnUse">
<stop stop-color="#FF395A"/>
<stop offset="0.519989" stop-color="#FFCA4D"/>
<stop offset="1" stop-color="#FF395A"/>
</linearGradient>
<linearGradient id="paint10_linear_39_4273" x1="85.1142" y1="184.388" x2="133.565" y2="260.922" gradientUnits="userSpaceOnUse">
<stop offset="0.00520833" stop-color="#FFCA4D"/>
<stop offset="0.802083" stop-color="#FF395A"/>
<stop offset="1" stop-color="#821023"/>
</linearGradient>
<linearGradient id="paint11_linear_39_4273" x1="234.611" y1="271.686" x2="239.032" y2="279.609" gradientUnits="userSpaceOnUse">
<stop stop-color="#34050C"/>
<stop offset="1" stop-color="#FF395A"/>
</linearGradient>
<linearGradient id="paint12_linear_39_4273" x1="226.569" y1="267.594" x2="259.749" y2="325.681" gradientUnits="userSpaceOnUse">
<stop stop-color="#FF395A"/>
<stop offset="0.519989" stop-color="#FFCA4D"/>
<stop offset="1" stop-color="#FF395A"/>
</linearGradient>
<linearGradient id="paint13_linear_39_4273" x1="212.041" y1="242.933" x2="238.159" y2="284.19" gradientUnits="userSpaceOnUse">
<stop offset="0.00520833" stop-color="#FFCA4D"/>
<stop offset="0.802083" stop-color="#FF395A"/>
<stop offset="1" stop-color="#821023"/>
</linearGradient>
</defs>
</svg>
