<svg width="242" height="239" viewBox="0 0 242 239" fill="none" xmlns="http://www.w3.org/2000/svg">
<path d="M92.9295 179.292C81.3886 173.56 85.471 157.089 89.9908 147.144C90.8858 145.175 93.031 144.122 95.1405 144.601C123.936 151.141 125.201 175.557 120.579 193.243C119.494 197.393 113.805 197.771 111.118 194.428C106.845 189.109 100.673 183.138 92.9295 179.292Z" fill="url(#paint0_linear_39_4281)"/>
<path d="M124.223 140.193C115.632 145.015 108.567 141.207 104.29 135.501C102.982 133.756 103.357 131.305 105.003 129.839C121.184 115.431 136.853 123.405 146.589 133.322C149.59 136.38 147.004 140.007 142.807 139.055C136.918 137.719 129.904 137.005 124.223 140.193Z" fill="url(#paint1_linear_39_4281)"/>
<path d="M115.44 188.963C110.977 179.164 76.2705 125.861 65.2583 117.22C67.17 116.511 69.8462 115.517 76.1627 118.264C82.4792 121.01 111.118 177.839 115.44 188.963Z" fill="#1D1022"/>
<path d="M125.968 133.337C118.167 132.185 84.0088 132.658 71.7546 136.233C72.8871 134.7 74.4725 132.554 80.5066 129.591C86.5407 126.629 117.678 131.546 125.968 133.337Z" fill="#1D1022"/>
<path d="M80.7666 143.954C42.0228 143.549 26.0779 106.894 25.6509 85.7069C25.6349 84.9109 25.4254 84.1051 25.5672 83.3217C26.1249 80.239 30.9734 73.8539 35.4666 71.625C41.9726 68.3976 72.716 73.1723 90.4472 84.4019C98.6855 89.6194 96.4078 93.2989 91.0385 95.6804C86.6923 97.6081 84.6569 104.895 86.8816 109.097C92.8063 120.288 89.0302 133.633 84.8356 141.577C84.0448 143.075 82.4602 143.972 80.7666 143.954Z" fill="url(#paint2_linear_39_4281)"/>
<path d="M73.3066 120.94C55.6396 101.669 -51.5967 5.34158 -74.7283 -5.87915C-73.6225 -9.09772 -72.0745 -13.6037 -61.7161 -12.334C-51.3578 -11.0643 54.0451 98.4545 73.3066 120.94Z" fill="#1D1022"/>
<path d="M40.0481 156.765L52.5786 175.836C52.6535 175.95 52.6233 176.103 52.5107 176.18C52.4004 176.256 52.2502 176.231 52.1697 176.125L39.9232 159.906C37.7062 156.663 35.0609 153.732 32.0519 151.185L19.6292 140.669C15.1881 136.91 11.5523 132.326 8.91326 127.157L-0.0222681 111.772L-3.88886 103.644C-4.36968 102.633 -4.04309 101.423 -3.11909 100.791C-1.90104 99.9588 -0.224854 100.489 0.29211 101.871L3.17753 109.584L7.92036 119.757C12.2601 129.066 18.5667 137.322 26.4056 143.957L35.5926 151.734C37.3112 153.189 38.8117 154.883 40.0481 156.765Z" fill="url(#paint3_linear_39_4281)"/>
<path d="M70.5441 178.493C70.1798 183.373 67.359 187.634 63.3193 190.395C59.1076 193.274 53.8701 194.302 49.0017 192.777C41.7092 190.493 31.6157 186.544 29.7909 181.763C26.8763 174.126 56.797 153.059 65.4107 157.414C70.875 160.178 71.1058 170.97 70.5441 178.493Z" fill="url(#paint4_linear_39_4281)"/>
<path d="M172.649 43.046C146.273 43.6824 119.718 68.3055 109.179 79.8047L142.358 82.3237C163.817 69.4544 199.025 42.4096 172.649 43.046Z" fill="url(#paint5_linear_39_4281)"/>
<path d="M151.142 64.8739C126.897 60.7273 133.26 -1.56773 112.343 -3.94505" stroke="url(#paint6_linear_39_4281)" stroke-width="8.47106" stroke-linecap="round"/>
<path d="M140.848 121.351C152.088 132.054 169.067 133.991 182.428 126.095V126.095C195.38 118.441 201.925 103.313 198.634 88.6333L187.836 40.4578C186.185 33.0938 176.728 30.6063 171.415 35.9661C163.897 43.5509 154.012 52.7878 144.783 59.1255C135.634 65.4083 122.748 69.674 112.169 72.3664C104.684 74.2712 101.681 84.0564 107.274 89.3822L140.848 121.351Z" fill="url(#paint7_linear_39_4281)"/>
<ellipse opacity="0.3" cx="19.6073" cy="13.665" rx="19.6073" ry="13.665" transform="matrix(0.714963 -0.699162 -0.699162 -0.714963 173.133 135.894)" fill="#FEF5D1"/>
<ellipse opacity="0.3" cx="15.6584" cy="9.2108" rx="15.6584" ry="9.2108" transform="matrix(0.714963 -0.699162 -0.699162 -0.714963 174.681 131.823)" fill="#FEF5D1"/>
<g opacity="0.4" filter="url(#filter0_d_39_4281)">
<path d="M145.506 100.591C141.95 96.9537 138.631 99.5456 135.339 102.764C132.048 105.983 130.031 108.609 133.587 112.246C137.144 115.883 142.695 116.223 145.987 113.004C149.278 109.785 149.063 104.228 145.506 100.591Z" fill="#FAC348"/>
</g>
<g opacity="0.1" filter="url(#filter1_d_39_4281)">
<path d="M127.649 77.1419C124.092 73.5049 120.773 76.0968 117.482 79.3155C114.19 82.5342 112.173 85.1607 115.73 88.7977C119.286 92.4347 124.838 92.7738 128.129 89.5552C131.42 86.3365 131.205 80.7789 127.649 77.1419Z" fill="#FEF5D1"/>
</g>
<g opacity="0.1" filter="url(#filter2_d_39_4281)">
<path d="M154.155 97.0418C152.537 95.3873 151.027 96.5664 149.53 98.0306C148.033 99.4947 147.115 100.689 148.733 102.344C150.351 103.998 152.876 104.153 154.373 102.689C155.871 101.224 155.773 98.6963 154.155 97.0418Z" fill="#FAC348"/>
</g>
<g opacity="0.1" filter="url(#filter3_d_39_4281)">
<path d="M143.096 89.4201C140.835 89.9111 141.031 91.8167 141.475 93.8632C141.92 95.9097 142.444 97.322 144.705 96.831C146.967 96.34 148.44 94.283 147.995 92.2365C147.551 90.1901 145.358 88.9291 143.096 89.4201Z" fill="#FAC348"/>
</g>
<g opacity="0.1" filter="url(#filter4_d_39_4281)">
<path d="M139.025 68.6663C136.432 69.2293 136.657 71.4145 137.167 73.7612C137.676 76.1079 138.277 77.7274 140.87 77.1644C143.464 76.6014 145.153 74.2426 144.643 71.8959C144.134 69.5493 141.618 68.1033 139.025 68.6663Z" fill="#FEF5D1"/>
</g>
<g opacity="0.1" filter="url(#filter5_d_39_4281)">
<path d="M178.924 90.2783C175.732 90.9713 176.009 93.6611 176.636 96.5497C177.263 99.4382 178.003 101.432 181.195 100.739C184.387 100.046 186.466 97.1422 185.839 94.2537C185.211 91.3651 182.115 89.5853 178.924 90.2783Z" fill="#FAC348"/>
</g>
<g opacity="0.1" filter="url(#filter6_d_39_4281)">
<path d="M157.775 120.278C154.583 120.971 154.86 123.661 155.487 126.549C156.114 129.438 156.854 131.431 160.046 130.738C163.238 130.045 165.317 127.142 164.69 124.253C164.063 121.365 160.967 119.585 157.775 120.278Z" fill="#FAC348"/>
</g>
<g opacity="0.5" filter="url(#filter7_d_39_4281)">
<path d="M157.907 78.598C155.863 79.0418 156.04 80.7643 156.442 82.6142C156.843 84.4641 157.317 85.7407 159.361 85.2969C161.405 84.8531 162.737 82.9937 162.335 81.1438C161.934 79.294 159.951 78.1541 157.907 78.598Z" fill="#FAC348"/>
</g>
<g opacity="0.1" filter="url(#filter8_d_39_4281)">
<path d="M169.425 56.1151C165.6 52.761 168.008 49.3061 171.044 45.845C174.079 42.3839 176.593 40.2272 180.417 43.5813C184.242 46.9355 184.881 52.4603 181.846 55.9214C178.811 59.3826 173.249 59.4693 169.425 56.1151Z" fill="#FEF5D1"/>
</g>
<g opacity="0.4" filter="url(#filter9_d_39_4281)">
<path d="M170.815 70.8056C169.075 69.2798 170.171 67.7082 171.552 66.1337C172.932 64.5593 174.076 63.5782 175.815 65.104C177.555 66.6298 177.846 69.143 176.465 70.7174C175.085 72.2919 172.555 72.3313 170.815 70.8056Z" fill="#FAC348"/>
</g>
<g opacity="0.1" filter="url(#filter10_d_39_4281)">
<path d="M156.076 55.256C156.627 51.8335 159.493 51.972 162.591 52.4704C165.688 52.9688 167.843 53.6383 167.293 57.0608C166.742 60.4833 163.785 62.8537 160.687 62.3554C157.59 61.857 155.526 58.6785 156.076 55.256Z" fill="#FEF5D1"/>
</g>
<path d="M67.184 90.232C58.8632 83.723 64.6629 71.1303 69.8393 63.8147C70.8923 62.3266 72.8447 61.8102 74.503 62.5673C96.3613 72.5461 93.6588 92.332 87.2426 105.861C85.7038 109.105 80.9649 108.499 79.3057 105.315C76.7155 100.344 72.7315 94.5714 67.184 90.232Z" fill="url(#paint8_linear_39_4281)"/>
<path d="M112.287 71.9256C104.416 74.4906 88.5927 63.6049 83.537 56.531C82.477 55.0479 83.1087 53.1125 84.6792 52.1869C99.8504 43.2456 111.119 52.1664 117.371 61.7423C119.334 64.749 116.474 70.5179 113.071 71.6656C112.821 71.7501 112.56 71.8367 112.287 71.9256Z" fill="url(#paint9_linear_39_4281)"/>
<path d="M83.7056 101.747C81.6712 93.0881 62.2445 44.2732 54.7777 35.4769C56.4218 35.2164 58.7235 34.8516 63.3543 38.1096C67.9851 41.3675 81.9932 92.0392 83.7056 101.747Z" fill="#1D1022"/>
<path d="M33.1784 76.2882C28.2413 66.9486 38.6782 57.8225 46.3909 53.2589C47.9598 52.3305 49.9528 52.6565 51.1574 54.0248C67.0344 72.0604 56.4871 89.0173 45.1052 98.746C42.3756 101.079 38.2972 98.5909 38.0832 95.0065C37.7491 89.4108 36.4699 82.5148 33.1784 76.2882Z" fill="url(#paint10_linear_39_4281)"/>
<path d="M43.5562 93.5469C45.2356 84.8119 47.4386 32.3196 44.2153 21.2409C45.8225 21.6745 48.0725 22.2816 50.969 27.1467C53.8654 32.0118 45.9579 83.9859 43.5562 93.5469Z" fill="#1D1022"/>
<path d="M0.569037 23.6846C-4.36803 14.345 6.06884 5.21889 13.7815 0.65529C15.3504 -0.273046 17.3435 0.0529091 18.548 1.42125C34.425 19.4568 23.8777 36.4138 12.4958 46.1424C9.76627 48.4755 5.68786 45.9873 5.47385 42.4029C5.13977 36.8073 3.86052 29.9112 0.569037 23.6846Z" fill="url(#paint11_linear_39_4281)"/>
<path d="M10.9468 40.9433C12.6262 32.2083 14.8293 -20.284 11.606 -31.3627C13.2131 -30.929 15.4631 -30.322 18.3596 -25.4569C21.2561 -20.5918 13.3485 31.3823 10.9468 40.9433Z" fill="#1D1022"/>
<path d="M100.905 58.4728C94.8329 56.2617 67.377 51.0419 56.9911 51.9237C58.1402 50.8694 59.749 49.3934 65.0525 47.9863C70.356 46.5793 94.5412 55.6645 100.905 58.4728Z" fill="#1D1022"/>
<path d="M85.8531 42.2163C78.2388 44.6977 77.8023 39.5095 76.6516 33.9238C76.2837 32.1383 76.9332 30.2184 78.5037 29.2928C93.6749 20.3515 104.943 29.2723 111.195 38.8482C113.158 41.8549 110.177 45.0651 106.726 44.0729C100.113 42.1714 91.4547 40.3908 85.8531 42.2163Z" fill="url(#paint12_linear_39_4281)"/>
<path d="M94.7296 35.5787C88.6573 33.3676 61.2014 28.1478 50.8156 29.0296C51.9647 27.9753 53.5735 26.4993 58.877 25.0922C64.1805 23.6852 88.3657 32.7704 94.7296 35.5787Z" fill="#1D1022"/>
<path d="M61.7981 56.6729C38.572 50.2385 32.7352 23.902 34.6631 9.81872C34.7456 9.2162 34.6985 8.58199 34.9147 8.01355C35.6716 6.02296 39.2776 2.58989 42.2431 1.78999C46.6077 0.612654 65.1005 8.41593 74.864 18.5739C77.8169 21.6462 78.3243 23.9886 77.4641 25.6699C75.6648 29.1863 71.5134 35.2214 71.9103 39.1514C72.56 45.5852 68.9473 51.3707 65.8179 55.3339C64.8622 56.5442 63.2843 57.0846 61.7981 56.6729Z" fill="url(#paint13_linear_39_4281)"/>
<path d="M60.6432 39.8066C49.516 21.3181 -21.2759 -74.1992 -38.0513 -87.0707C-36.658 -89.4932 -34.7076 -92.8847 -26.6042 -90.1585C-18.5009 -87.4324 48.7441 18.4563 60.6432 39.8066Z" fill="#1D1022"/>
<path d="M176.587 20.3881L181.734 40.0664C181.764 40.1841 181.695 40.3047 181.578 40.3376C181.464 40.3699 181.344 40.3064 181.306 40.1933L175.586 23.0055C174.638 19.6344 173.239 16.4051 171.424 13.3964L163.929 0.974728C161.25 -3.46598 159.486 -8.37408 158.73 -13.4911L155.569 -29.0319L154.62 -36.9982C154.502 -37.9888 155.122 -38.9179 156.083 -39.188C157.349 -39.544 158.613 -38.6181 158.656 -37.3037L158.894 -29.9672L160.001 -20.0238C161.013 -10.9256 163.986 -2.15502 168.715 5.68317L174.258 14.8694C175.294 16.5879 176.079 18.4464 176.587 20.3881Z" fill="url(#paint14_linear_39_4281)"/>
<path d="M196.149 47.4303C194.451 51.4477 190.854 54.2423 186.655 55.4231C182.278 56.6542 177.561 56.0294 173.884 53.354C168.376 49.3465 160.977 43.135 160.799 38.5765C160.514 31.296 191.788 22.0313 197.822 28.165C201.649 32.0561 198.768 41.2369 196.149 47.4303Z" fill="url(#paint15_linear_39_4281)"/>
<defs>
<filter id="filter0_d_39_4281" x="130.79" y="98.8205" width="18.4528" height="18.2342" filterUnits="userSpaceOnUse" color-interpolation-filters="sRGB">
<feFlood flood-opacity="0" result="BackgroundImageFix"/>
<feColorMatrix in="SourceAlpha" type="matrix" values="0 0 0 0 0 0 0 0 0 0 0 0 0 0 0 0 0 0 127 0" result="hardAlpha"/>
<feOffset dy="0.92108"/>
<feGaussianBlur stdDeviation="0.46054"/>
<feComposite in2="hardAlpha" operator="out"/>
<feColorMatrix type="matrix" values="0 0 0 0 0 0 0 0 0 0 0 0 0 0 0 0 0 0 0.25 0"/>
<feBlend mode="normal" in2="BackgroundImageFix" result="effect1_dropShadow_39_4281"/>
<feBlend mode="normal" in="SourceGraphic" in2="effect1_dropShadow_39_4281" result="shape"/>
</filter>
<filter id="filter1_d_39_4281" x="112.932" y="75.3717" width="18.4528" height="18.2342" filterUnits="userSpaceOnUse" color-interpolation-filters="sRGB">
<feFlood flood-opacity="0" result="BackgroundImageFix"/>
<feColorMatrix in="SourceAlpha" type="matrix" values="0 0 0 0 0 0 0 0 0 0 0 0 0 0 0 0 0 0 127 0" result="hardAlpha"/>
<feOffset dy="0.92108"/>
<feGaussianBlur stdDeviation="0.46054"/>
<feComposite in2="hardAlpha" operator="out"/>
<feColorMatrix type="matrix" values="0 0 0 0 0 0 0 0 0 0 0 0 0 0 0 0 0 0 1 0"/>
<feBlend mode="normal" in2="BackgroundImageFix" result="effect1_dropShadow_39_4281"/>
<feBlend mode="normal" in="SourceGraphic" in2="effect1_dropShadow_39_4281" result="shape"/>
</filter>
<filter id="filter2_d_39_4281" x="146.958" y="96.2366" width="9.39807" height="9.29876" filterUnits="userSpaceOnUse" color-interpolation-filters="sRGB">
<feFlood flood-opacity="0" result="BackgroundImageFix"/>
<feColorMatrix in="SourceAlpha" type="matrix" values="0 0 0 0 0 0 0 0 0 0 0 0 0 0 0 0 0 0 127 0" result="hardAlpha"/>
<feOffset dy="0.92108"/>
<feGaussianBlur stdDeviation="0.46054"/>
<feComposite in2="hardAlpha" operator="out"/>
<feColorMatrix type="matrix" values="0 0 0 0 0 0 0 0 0 0 0 0 0 0 0 0 0 0 1 0"/>
<feBlend mode="normal" in2="BackgroundImageFix" result="effect1_dropShadow_39_4281"/>
<feBlend mode="normal" in="SourceGraphic" in2="effect1_dropShadow_39_4281" result="shape"/>
</filter>
<filter id="filter3_d_39_4281" x="140.274" y="89.3141" width="8.7218" height="9.457" filterUnits="userSpaceOnUse" color-interpolation-filters="sRGB">
<feFlood flood-opacity="0" result="BackgroundImageFix"/>
<feColorMatrix in="SourceAlpha" type="matrix" values="0 0 0 0 0 0 0 0 0 0 0 0 0 0 0 0 0 0 127 0" result="hardAlpha"/>
<feOffset dy="0.92108"/>
<feGaussianBlur stdDeviation="0.46054"/>
<feComposite in2="hardAlpha" operator="out"/>
<feColorMatrix type="matrix" values="0 0 0 0 0 0 0 0 0 0 0 0 0 0 0 0 0 0 1 0"/>
<feBlend mode="normal" in2="BackgroundImageFix" result="effect1_dropShadow_39_4281"/>
<feBlend mode="normal" in="SourceGraphic" in2="effect1_dropShadow_39_4281" result="shape"/>
</filter>
<filter id="filter4_d_39_4281" x="135.924" y="68.5447" width="9.73108" height="10.5741" filterUnits="userSpaceOnUse" color-interpolation-filters="sRGB">
<feFlood flood-opacity="0" result="BackgroundImageFix"/>
<feColorMatrix in="SourceAlpha" type="matrix" values="0 0 0 0 0 0 0 0 0 0 0 0 0 0 0 0 0 0 127 0" result="hardAlpha"/>
<feOffset dy="0.92108"/>
<feGaussianBlur stdDeviation="0.46054"/>
<feComposite in2="hardAlpha" operator="out"/>
<feColorMatrix type="matrix" values="0 0 0 0 0 0 0 0 0 0 0 0 0 0 0 0 0 0 1 0"/>
<feBlend mode="normal" in2="BackgroundImageFix" result="effect1_dropShadow_39_4281"/>
<feBlend mode="normal" in="SourceGraphic" in2="effect1_dropShadow_39_4281" result="shape"/>
</filter>
<filter id="filter5_d_39_4281" x="175.318" y="90.1287" width="11.5529" height="12.5904" filterUnits="userSpaceOnUse" color-interpolation-filters="sRGB">
<feFlood flood-opacity="0" result="BackgroundImageFix"/>
<feColorMatrix in="SourceAlpha" type="matrix" values="0 0 0 0 0 0 0 0 0 0 0 0 0 0 0 0 0 0 127 0" result="hardAlpha"/>
<feOffset dy="0.92108"/>
<feGaussianBlur stdDeviation="0.46054"/>
<feComposite in2="hardAlpha" operator="out"/>
<feColorMatrix type="matrix" values="0 0 0 0 0 0 0 0 0 0 0 0 0 0 0 0 0 0 1 0"/>
<feBlend mode="normal" in2="BackgroundImageFix" result="effect1_dropShadow_39_4281"/>
<feBlend mode="normal" in="SourceGraphic" in2="effect1_dropShadow_39_4281" result="shape"/>
</filter>
<filter id="filter6_d_39_4281" x="154.17" y="120.128" width="11.5529" height="12.5904" filterUnits="userSpaceOnUse" color-interpolation-filters="sRGB">
<feFlood flood-opacity="0" result="BackgroundImageFix"/>
<feColorMatrix in="SourceAlpha" type="matrix" values="0 0 0 0 0 0 0 0 0 0 0 0 0 0 0 0 0 0 127 0" result="hardAlpha"/>
<feOffset dy="0.92108"/>
<feGaussianBlur stdDeviation="0.46054"/>
<feComposite in2="hardAlpha" operator="out"/>
<feColorMatrix type="matrix" values="0 0 0 0 0 0 0 0 0 0 0 0 0 0 0 0 0 0 1 0"/>
<feBlend mode="normal" in2="BackgroundImageFix" result="effect1_dropShadow_39_4281"/>
<feBlend mode="normal" in="SourceGraphic" in2="effect1_dropShadow_39_4281" result="shape"/>
</filter>
<filter id="filter7_d_39_4281" x="155.267" y="78.5021" width="8.06091" height="8.72546" filterUnits="userSpaceOnUse" color-interpolation-filters="sRGB">
<feFlood flood-opacity="0" result="BackgroundImageFix"/>
<feColorMatrix in="SourceAlpha" type="matrix" values="0 0 0 0 0 0 0 0 0 0 0 0 0 0 0 0 0 0 127 0" result="hardAlpha"/>
<feOffset dy="0.92108"/>
<feGaussianBlur stdDeviation="0.46054"/>
<feComposite in2="hardAlpha" operator="out"/>
<feColorMatrix type="matrix" values="0 0 0 0 0 0 0 0 0 0 0 0 0 0 0 0 0 0 0.25 0"/>
<feBlend mode="normal" in2="BackgroundImageFix" result="effect1_dropShadow_39_4281"/>
<feBlend mode="normal" in="SourceGraphic" in2="effect1_dropShadow_39_4281" result="shape"/>
</filter>
<filter id="filter8_d_39_4281" x="166.534" y="41.9044" width="18.149" height="18.5129" filterUnits="userSpaceOnUse" color-interpolation-filters="sRGB">
<feFlood flood-opacity="0" result="BackgroundImageFix"/>
<feColorMatrix in="SourceAlpha" type="matrix" values="0 0 0 0 0 0 0 0 0 0 0 0 0 0 0 0 0 0 127 0" result="hardAlpha"/>
<feOffset dy="0.92108"/>
<feGaussianBlur stdDeviation="0.46054"/>
<feComposite in2="hardAlpha" operator="out"/>
<feColorMatrix type="matrix" values="0 0 0 0 0 0 0 0 0 0 0 0 0 0 0 0 0 0 1 0"/>
<feBlend mode="normal" in2="BackgroundImageFix" result="effect1_dropShadow_39_4281"/>
<feBlend mode="normal" in="SourceGraphic" in2="effect1_dropShadow_39_4281" result="shape"/>
</filter>
<filter id="filter9_d_39_4281" x="168.998" y="64.3412" width="9.26013" height="9.4256" filterUnits="userSpaceOnUse" color-interpolation-filters="sRGB">
<feFlood flood-opacity="0" result="BackgroundImageFix"/>
<feColorMatrix in="SourceAlpha" type="matrix" values="0 0 0 0 0 0 0 0 0 0 0 0 0 0 0 0 0 0 127 0" result="hardAlpha"/>
<feOffset dy="0.92108"/>
<feGaussianBlur stdDeviation="0.46054"/>
<feComposite in2="hardAlpha" operator="out"/>
<feColorMatrix type="matrix" values="0 0 0 0 0 0 0 0 0 0 0 0 0 0 0 0 0 0 0.25 0"/>
<feBlend mode="normal" in2="BackgroundImageFix" result="effect1_dropShadow_39_4281"/>
<feBlend mode="normal" in="SourceGraphic" in2="effect1_dropShadow_39_4281" result="shape"/>
</filter>
<filter id="filter10_d_39_4281" x="155.066" y="52.2054" width="13.2335" height="12.0583" filterUnits="userSpaceOnUse" color-interpolation-filters="sRGB">
<feFlood flood-opacity="0" result="BackgroundImageFix"/>
<feColorMatrix in="SourceAlpha" type="matrix" values="0 0 0 0 0 0 0 0 0 0 0 0 0 0 0 0 0 0 127 0" result="hardAlpha"/>
<feOffset dy="0.92108"/>
<feGaussianBlur stdDeviation="0.46054"/>
<feComposite in2="hardAlpha" operator="out"/>
<feColorMatrix type="matrix" values="0 0 0 0 0 0 0 0 0 0 0 0 0 0 0 0 0 0 1 0"/>
<feBlend mode="normal" in2="BackgroundImageFix" result="effect1_dropShadow_39_4281"/>
<feBlend mode="normal" in="SourceGraphic" in2="effect1_dropShadow_39_4281" result="shape"/>
</filter>
<linearGradient id="paint0_linear_39_4281" x1="117.103" y1="195.336" x2="93.1869" y2="147.124" gradientUnits="userSpaceOnUse">
<stop stop-color="#AFE0A9"/>
<stop offset="0.470324" stop-color="#1DBBA2"/>
<stop offset="1" stop-color="#06342D"/>
</linearGradient>
<linearGradient id="paint1_linear_39_4281" x1="148.355" y1="135.589" x2="105.613" y2="129.695" gradientUnits="userSpaceOnUse">
<stop stop-color="#AFE0A9"/>
<stop offset="0.470324" stop-color="#1DBBA2"/>
<stop offset="1" stop-color="#06342D"/>
</linearGradient>
<linearGradient id="paint2_linear_39_4281" x1="81.2004" y1="134.38" x2="49.3119" y2="70.0969" gradientUnits="userSpaceOnUse">
<stop stop-color="#AFE0A9"/>
<stop offset="0.470324" stop-color="#1DBBA2"/>
<stop offset="1" stop-color="#06342D"/>
</linearGradient>
<linearGradient id="paint3_linear_39_4281" x1="49.2282" y1="178.424" x2="-3.60967" y2="101.127" gradientUnits="userSpaceOnUse">
<stop stop-color="#FF395A"/>
<stop offset="1" stop-color="#FDDF95"/>
</linearGradient>
<linearGradient id="paint4_linear_39_4281" x1="66.258" y1="193.487" x2="37.075" y2="157.679" gradientUnits="userSpaceOnUse">
<stop stop-color="#FEF5D2"/>
<stop offset="0.416542" stop-color="#FFCA4D"/>
<stop offset="0.989583" stop-color="#FF395A"/>
</linearGradient>
<linearGradient id="paint5_linear_39_4281" x1="143.721" y1="67.3913" x2="137.374" y2="56.0163" gradientUnits="userSpaceOnUse">
<stop stop-color="#34050C"/>
<stop offset="1" stop-color="#FF395A"/>
</linearGradient>
<linearGradient id="paint6_linear_39_4281" x1="155.268" y1="73.2668" x2="107.63" y2="-10.1311" gradientUnits="userSpaceOnUse">
<stop stop-color="#FF395A"/>
<stop offset="0.519989" stop-color="#FFCA4D"/>
<stop offset="1" stop-color="#FF395A"/>
</linearGradient>
<linearGradient id="paint7_linear_39_4281" x1="176.125" y1="108.672" x2="138.627" y2="49.4386" gradientUnits="userSpaceOnUse">
<stop offset="0.00520833" stop-color="#FFCA4D"/>
<stop offset="0.802083" stop-color="#FF395A"/>
<stop offset="1" stop-color="#821023"/>
</linearGradient>
<linearGradient id="paint8_linear_39_4281" x1="84.0352" y1="107.176" x2="72.456" y2="64.2499" gradientUnits="userSpaceOnUse">
<stop stop-color="#AFE0A9"/>
<stop offset="0.470324" stop-color="#1DBBA2"/>
<stop offset="1" stop-color="#06342D"/>
</linearGradient>
<linearGradient id="paint9_linear_39_4281" x1="118.495" y1="63.9665" x2="85.034" y2="52.5624" gradientUnits="userSpaceOnUse">
<stop stop-color="#AFE0A9"/>
<stop offset="0.470324" stop-color="#1DBBA2"/>
<stop offset="1" stop-color="#06342D"/>
</linearGradient>
<linearGradient id="paint10_linear_39_4281" x1="41.6402" y1="98.6371" x2="48.6017" y2="54.7248" gradientUnits="userSpaceOnUse">
<stop stop-color="#AFE0A9"/>
<stop offset="0.470324" stop-color="#1DBBA2"/>
<stop offset="1" stop-color="#06342D"/>
</linearGradient>
<linearGradient id="paint11_linear_39_4281" x1="9.03082" y1="46.0336" x2="15.9923" y2="2.12119" gradientUnits="userSpaceOnUse">
<stop stop-color="#AFE0A9"/>
<stop offset="0.470324" stop-color="#1DBBA2"/>
<stop offset="1" stop-color="#06342D"/>
</linearGradient>
<linearGradient id="paint12_linear_39_4281" x1="112.32" y1="41.0726" x2="78.8586" y2="29.6685" gradientUnits="userSpaceOnUse">
<stop stop-color="#AFE0A9"/>
<stop offset="0.470324" stop-color="#1DBBA2"/>
<stop offset="1" stop-color="#06342D"/>
</linearGradient>
<linearGradient id="paint13_linear_39_4281" x1="63.8287" y1="50.545" x2="50.9629" y2="2.84896" gradientUnits="userSpaceOnUse">
<stop stop-color="#AFE0A9"/>
<stop offset="0.470324" stop-color="#FF395A"/>
<stop offset="1" stop-color="#06342D"/>
</linearGradient>
<linearGradient id="paint14_linear_39_4281" x1="178.166" y1="41.2971" x2="155.573" y2="-39.0446" gradientUnits="userSpaceOnUse">
<stop stop-color="#FF395A"/>
<stop offset="1" stop-color="#FDDF95"/>
</linearGradient>
<linearGradient id="paint15_linear_39_4281" x1="185.001" y1="53.3655" x2="175.984" y2="28.6607" gradientUnits="userSpaceOnUse">
<stop stop-color="#FEF5D2"/>
<stop offset="0.723958" stop-color="#FF395A"/>
<stop offset="0.989583" stop-color="#AA0F29"/>
</linearGradient>
</defs>
</svg>
